<?xml version="1.0" encoding="iso-8859-1" standalone="no"?> 
<?xml-stylesheet href="doc.css" type="text/css"?> 
<svg xmlns="http://www.w3.org/2000/svg" xmlns:xlink="http://www.w3.org/1999/xlink" width="167.48169pt" height="173.50679pt" viewBox="-83.74084 -87.82616 167.48169 173.50679 "> 
<g transform="translate(0, 85.68063 ) scale(1,-1) translate(0,87.82616 )"> 
                           <g stroke="#000" fill="#000">
 <g stroke-width="0.4">
 <g stroke="#808080" fill="#808080">
 <g stroke-width="0.2">
 <g stroke-dasharray="none" stroke-dashoffset="0.0">
 <g stroke="#808080" fill="#808080">
 <g stroke-width="0.2">
 <g stroke-dasharray="none" stroke-dashoffset="0.0">
 <path d=" M 62.95718 0.0 C 62.95718 34.77074 34.77074 62.95718 0.0 62.95718 C -34.77074 62.95718 -62.95718 34.77074 -62.95718 0.0 C -62.95718 -34.77074 -34.77074 -62.95718 0.0 -62.95718 C 34.77074 -62.95718 62.95718 -34.77074 62.95718 0.0 Z M 0.0 0.0  " fill="none"/>
 </g>
 </g>
 </g>
 <g fill="#808080">
 <text style="stroke:none" transform="scale(1,-1) translate(0.0,0)" text-anchor="middle"  font-size="10"> 
<g fill="#808080">
 <g stroke="none"> </g> </g>
 </text> 
</g>
 </g>
 </g>
 </g>
 <g stroke="#000">
 <g fill="#000">
 <g stroke="#000">
 <g fill="#000">
 <path d=" M 60.74374 19.91457 C 60.74374 20.46686 60.29604 20.91457 59.74374 20.91457 C 59.19145 20.91457 58.74374 20.46686 58.74374 19.91457 C 58.74374 19.36227 59.19145 18.91457 59.74374 18.91457 C 60.29604 18.91457 60.74374 19.36227 60.74374 19.91457 Z M 59.74374 19.91457  " />
 </g>
 </g>
 <g transform="translate(59.74374,19.91457)">
 <g fill="#000">
 <text style="stroke:none" transform="scale(1,-1) translate(0.0,0)" text-anchor="middle"  font-size="10"> 
<g fill="#000">
 <g stroke="none"> </g> </g>
 </text> 
</g>
 </g>
 </g>
 </g>
 <g stroke="#000">
 <g fill="#000">
 <g stroke="#000">
 <g fill="#000">
 <path d=" M -58.74374 19.91457 C -58.74374 20.46686 -59.19145 20.91457 -59.74374 20.91457 C -60.29604 20.91457 -60.74374 20.46686 -60.74374 19.91457 C -60.74374 19.36227 -60.29604 18.91457 -59.74374 18.91457 C -59.19145 18.91457 -58.74374 19.36227 -58.74374 19.91457 Z M -59.74374 19.91457  " />
 </g>
 </g>
 <g transform="translate(-59.74374,19.91457)">
 <g fill="#000">
 <text style="stroke:none" transform="scale(1,-1) translate(0.0,0)" text-anchor="middle"  font-size="10"> 
<g fill="#000">
 <g stroke="none"> </g> </g>
 </text> 
</g>
 </g>
 </g>
 </g>
 <g stroke="#000" fill="#000">
 <g stroke="#000" fill="#000">
 </g>
 <g transform="translate(63.27672,23.44754)">
 <g fill="#000">
 <text style="stroke:none" transform="scale(1,-1) translate(4.0434,0)" text-anchor="middle"  font-size="10"> 
<g fill="#000">
 <g stroke="none"> <tspan font-family="\cmmi" font-size="\10">B</tspan></g> </g>
 </text> 
</g>
 </g>
 </g>
 <g stroke="#000" fill="#000">
 <g stroke="#000" fill="#000">
 </g>
 <g transform="translate(-71.1392,23.44754)">
 <g fill="#000">
 <text style="stroke:none" transform="scale(1,-1) translate(3.93124,0)" text-anchor="middle"  font-size="10"> 
<g fill="#000">
 <g stroke="none"> <tspan font-family="\cmmi" font-size="\10">C</tspan> </g> </g>
 </text> 
</g>
 </g>
 </g>
 <g stroke-width="0.2">
 <g stroke="#000" fill="#000">
 <g stroke-dasharray="none" stroke-dashoffset="0.0">
 <g stroke-linecap="round">
 <path d=" M 59.74374 19.91457 M 83.64085 19.91457 L -83.64085 19.91457  " fill="none"/>
 </g>
 </g>
 </g>
 </g>
 <g stroke="#000">
 <g fill="#000">
 <g stroke="#000">
 <g fill="#000">
 <path d=" M 1.0 -62.96832 C 1.0 -62.41603 0.55229 -61.96832 0.0 -61.96832 C -0.55229 -61.96832 -1.0 -62.41603 -1.0 -62.96832 C -1.0 -63.52061 -0.55229 -63.96832 0.0 -63.96832 C 0.55229 -63.96832 1.0 -63.52061 1.0 -62.96832 Z M 0.0 -62.96832  " />
 </g>
 </g>
 <g transform="translate(0.0,-62.96832)">
 <g fill="#000">
 <text style="stroke:none" transform="scale(1,-1) translate(0.0,0)" text-anchor="middle"  font-size="10"> 
<g fill="#000">
 <g stroke="none"> </g> </g>
 </text> 
</g>
 </g>
 </g>
 </g>
 <g stroke="#000" fill="#000">
 <g stroke="#000" fill="#000">
 </g>
 <g transform="translate(3.53297,-73.33461)">
 <g fill="#000">
 <text style="stroke:none" transform="scale(1,-1) translate(5.39583,0)" text-anchor="middle"  font-size="10"> 
<g fill="#000">
 <g stroke="none"> <tspan font-family="\cmmi" font-size="\10">M</tspan></g> </g>
 </text> 
</g>
 </g>
 </g>
 <g stroke-width="0.2">
 <g stroke="#000" fill="#000">
 <g stroke-dasharray="none" stroke-dashoffset="0.0">
 <g stroke-linecap="round">
 <path d=" M -16.29726 60.8228 M -19.55666 85.58064 L 3.25938 -87.72617  " fill="none"/>
 </g>
 </g>
 </g>
 </g>
 <g stroke="#000">
 <g fill="#000">
 <g stroke="#000">
 <g fill="#000">
 <path d=" M 32.48419 54.53232 C 32.48419 55.08461 32.03648 55.53232 31.48419 55.53232 C 30.9319 55.53232 30.48419 55.08461 30.48419 54.53232 C 30.48419 53.98003 30.9319 53.53232 31.48419 53.53232 C 32.03648 53.53232 32.48419 53.98003 32.48419 54.53232 Z M 31.48419 54.53232  " />
 </g>
 </g>
 <g transform="translate(31.48419,54.53232)">
 <g fill="#000">
 <text style="stroke:none" transform="scale(1,-1) translate(0.0,0)" text-anchor="middle"  font-size="10"> 
<g fill="#000">
 <g stroke="none"> </g> </g>
 </text> 
</g>
 </g>
 </g>
 </g>
 <g stroke="#000">
 <g fill="#000">
 <g stroke="#000">
 <g fill="#000">
 <path d=" M -15.29726 60.8228 C -15.29726 61.37509 -15.74496 61.8228 -16.29726 61.8228 C -16.84955 61.8228 -17.29726 61.37509 -17.29726 60.8228 C -17.29726 60.27051 -16.84955 59.8228 -16.29726 59.8228 C -15.74496 59.8228 -15.29726 60.27051 -15.29726 60.8228 Z M -16.29726 60.8228  " />
 </g>
 </g>
 <g transform="translate(-16.29726,60.8228)">
 <g fill="#000">
 <text style="stroke:none" transform="scale(1,-1) translate(0.0,0)" text-anchor="middle"  font-size="10"> 
<g fill="#000">
 <g stroke="none"> </g> </g>
 </text> 
</g>
 </g>
 </g>
 </g>
 <g stroke="#000" fill="#000">
 <g stroke="#000" fill="#000">
 </g>
 <g transform="translate(35.01717,58.06529)">
 <g fill="#000">
 <text style="stroke:none" transform="scale(1,-1) translate(3.97916,0)" text-anchor="middle"  font-size="10"> 
<g fill="#000">
 <g stroke="none"> <tspan font-family="\cmmi" font-size="\10">E</tspan> </g> </g>
 </text> 
</g>
 </g>
 </g>
 <g stroke="#000" fill="#000">
 <g stroke="#000" fill="#000">
 </g>
 <g transform="translate(-27.33023,64.35577)">
 <g fill="#000">
 <text style="stroke:none" transform="scale(1,-1) translate(3.75,0)" text-anchor="middle"  font-size="10"> 
<g fill="#000">
 <g stroke="none"> <tspan font-family="\cmmi" font-size="\10">A</tspan> </g> </g>
 </text> 
</g>
 </g>
 </g>
 <g stroke="#000">
 <g fill="#000">
 <g stroke="#000">
 <g fill="#000">
 <path d=" M 23.20605 19.91243 C 23.20605 20.46472 22.75835 20.91243 22.20605 20.91243 C 21.65376 20.91243 21.20605 20.46472 21.20605 19.91243 C 21.20605 19.36014 21.65376 18.91243 22.20605 18.91243 C 22.75835 18.91243 23.20605 19.36014 23.20605 19.91243 Z M 22.20605 19.91243  " />
 </g>
 </g>
 <g transform="translate(22.20605,19.91243)">
 <g fill="#000">
 <text style="stroke:none" transform="scale(1,-1) translate(0.0,0)" text-anchor="middle"  font-size="10"> 
<g fill="#000">
 <g stroke="none"> </g> </g>
 </text> 
</g>
 </g>
 </g>
 </g>
 <g stroke="#000">
 <g fill="#000">
 <g stroke="#000">
 <g fill="#000">
 <path d=" M -9.9105 19.91243 C -9.9105 20.46472 -10.35822 20.91243 -10.9105 20.91243 C -11.4628 20.91243 -11.9105 20.46472 -11.9105 19.91243 C -11.9105 19.36014 -11.4628 18.91243 -10.9105 18.91243 C -10.35822 18.91243 -9.9105 19.36014 -9.9105 19.91243 Z M -10.9105 19.91243  " />
 </g>
 </g>
 <g transform="translate(-10.9105,19.91243)">
 <g fill="#000">
 <text style="stroke:none" transform="scale(1,-1) translate(0.0,0)" text-anchor="middle"  font-size="10"> 
<g fill="#000">
 <g stroke="none"> </g> </g>
 </text> 
</g>
 </g>
 </g>
 </g>
 <g stroke="#000" fill="#000">
 <g stroke="#000" fill="#000">
 </g>
 <g transform="translate(25.73903,9.54614)">
 <g fill="#000">
 <text style="stroke:none" transform="scale(1,-1) translate(4.27847,0)" text-anchor="middle"  font-size="10"> 
<g fill="#000">
 <g stroke="none"> <tspan font-family="\cmmi" font-size="\10">D</tspan> </g> </g>
 </text> 
</g>
 </g>
 </g>
 <g stroke="#000" fill="#000">
 <g stroke="#000" fill="#000">
 </g>
 <g transform="translate(-23.51291,9.54614)">
 <g fill="#000">
 <text style="stroke:none" transform="scale(1,-1) translate(4.53471,0)" text-anchor="middle"  font-size="10"> 
<g fill="#000">
 <g stroke="none"> <tspan font-family="\cmmi" font-size="\10">X</tspan> </g> </g>
 </text> 
</g>
 </g>
 </g>
 <g stroke="#808080" fill="#808080">
 <g stroke-width="0.2">
 <g stroke-dasharray="none" stroke-dashoffset="0.0">
 <g stroke="#808080" fill="#808080">
 <g stroke-width="0.2">
 <g stroke-dasharray="none" stroke-dashoffset="0.0">
 <path d=" M 40.76418 38.45657 C 40.76418 48.70824 32.45378 57.01863 22.20212 57.01863 C 11.95045 57.01863 3.64006 48.70824 3.64006 38.45657 C 3.64006 28.20491 11.95045 19.89452 22.20212 19.89452 C 32.45378 19.89452 40.76418 28.20491 40.76418 38.45657 Z M 22.20212 38.45657  " fill="none"/>
 </g>
 </g>
 </g>
 <g transform="translate(22.20212,38.45657)">
 <g fill="#808080">
 <text style="stroke:none" transform="scale(1,-1) translate(0.0,0)" text-anchor="middle"  font-size="10"> 
<g fill="#808080">
 <g stroke="none"> </g> </g>
 </text> 
</g>
 </g>
 </g>
 </g>
 </g>
 <g stroke-width="0.2">
 <g stroke="#000" fill="#000">
 <g stroke-dasharray="none" stroke-dashoffset="0.0">
 <g stroke-linecap="round">
 <path d=" M 31.48419 54.53232 M 37.78093 78.03209 L -6.29672 -86.4681  " fill="none"/>
 </g>
 </g>
 </g>
 </g>
 <g stroke-width="0.2">
 <g stroke="#000" fill="#000">
 <g stroke-dasharray="none" stroke-dashoffset="0.0">
 <g stroke-linecap="round">
 <path d=" M -13.36235 38.53694 M -13.36235 38.53694 L 22.20605 19.91243  " fill="none"/>
 </g>
 </g>
 </g>
 </g>
 <g stroke="#000">
 <g fill="#000">
 <g stroke="#000">
 <g fill="#000">
 <path d=" M 7.9255 27.9101 C 7.9255 28.46239 7.4778 28.9101 6.9255 28.9101 C 6.37321 28.9101 5.9255 28.46239 5.9255 27.9101 C 5.9255 27.3578 6.37321 26.9101 6.9255 26.9101 C 7.4778 26.9101 7.9255 27.3578 7.9255 27.9101 Z M 6.9255 27.9101  " />
 </g>
 </g>
 <g transform="translate(6.9255,27.9101)">
 <g fill="#000">
 <text style="stroke:none" transform="scale(1,-1) translate(0.0,0)" text-anchor="middle"  font-size="10"> 
<g fill="#000">
 <g stroke="none"> </g> </g>
 </text> 
</g>
 </g>
 </g>
 </g>
 <g stroke="#000" fill="#000">
 <g stroke="#000" fill="#000">
 </g>
 <g transform="translate(3.52272,17.54381)">
 <g fill="#000">
 <text style="stroke:none" transform="scale(1,-1) translate(3.40279,0)" text-anchor="middle"  font-size="10"> 
<g fill="#000">
 <g stroke="none"> <tspan font-family="\cmmi" font-size="\10">L</tspan> </g> </g>
 </text> 
</g>
 </g>
 </g>
 <g stroke="#000">
 <g fill="#000">
 <g stroke="#000">
 <g fill="#000">
 <path d=" M -12.36235 38.53694 C -12.36235 39.08923 -12.81006 39.53694 -13.36235 39.53694 C -13.91464 39.53694 -14.36235 39.08923 -14.36235 38.53694 C -14.36235 37.98465 -13.91464 37.53694 -13.36235 37.53694 C -12.81006 37.53694 -12.36235 37.98465 -12.36235 38.53694 Z M -13.36235 38.53694  " />
 </g>
 </g>
 <g transform="translate(-13.36235,38.53694)">
 <g fill="#000">
 <text style="stroke:none" transform="scale(1,-1) translate(0.0,0)" text-anchor="middle"  font-size="10"> 
<g fill="#000">
 <g stroke="none"> </g> </g>
 </text> 
</g>
 </g>
 </g>
 </g>
 <g stroke="#000" fill="#000">
 <g stroke="#000" fill="#000">
 </g>
 <g transform="translate(-22.07587,42.06992)">
 <g fill="#000">
 <text style="stroke:none" transform="scale(1,-1) translate(2.59027,0)" text-anchor="middle"  font-size="10"> 
<g fill="#000">
 <g stroke="none"> <tspan font-family="\cmmi" font-size="\10">I</tspan> </g> </g>
 </text> 
</g>
 </g>
 </g>
 <g stroke="#808080" fill="#808080">
 <g stroke-width="0.2">
 <g stroke-dasharray="none" stroke-dashoffset="0.0">
 <g stroke-dasharray="3.0,3.0" stroke-dashoffset="0.0">
 <g stroke="#00f" fill="#00f">
 <g stroke="#808080" fill="#808080">
 <g stroke-width="0.2">
 <g stroke-dasharray="none" stroke-dashoffset="0.0">
 <g stroke-dasharray="3.0,3.0" stroke-dashoffset="0.0">
 <g stroke="#00f" fill="#00f">
 <path d=" M 31.53247 52.52979 C 31.53247 66.1346 20.5039 77.16316 6.8991 77.16316 C -6.70572 77.16316 -17.73428 66.1346 -17.73428 52.52979 C -17.73428 38.92497 -6.70572 27.89641 6.8991 27.89641 C 20.5039 27.89641 31.53247 38.92497 31.53247 52.52979 Z M 6.8991 52.52979  " fill="none"/>
 </g>
 </g>
 </g>
 </g>
 </g>
 <g transform="translate(6.8991,52.52979)">
 <g fill="#00f">
 <text style="stroke:none" transform="scale(1,-1) translate(0.0,0)" text-anchor="middle"  font-size="10"> 
<g fill="#00f">
 <g stroke="none"> </g> </g>
 </text> 
</g>
 </g>
 </g>
 </g>
 </g>
 </g>
 </g>
 </g>
 </g>
 
                                           </g> 
</svg> 
