<?xml version="1.0" encoding="iso-8859-1" standalone="no"?> 
<?xml-stylesheet href="doc.css" type="text/css"?> 
<svg xmlns="http://www.w3.org/2000/svg" xmlns:xlink="http://www.w3.org/1999/xlink" width="287.67702pt" height="118.5537pt" viewBox="-12.95453 -17.00746 287.67702 118.5537 "> 
<g transform="translate(0, 101.54623 ) scale(1,-1) translate(0,17.00746 )"> 
        <g stroke="#000" fill="#000">
 <g stroke-width="0.4">
 <g stroke="#000">
 <g fill="#000">
 <g stroke="#000">
 <g fill="#000">
 <path d=" M 112.45332 0.0 C 112.45332 0.55229 112.00562 1.0 111.45332 1.0 C 110.90103 1.0 110.45332 0.55229 110.45332 0.0 C 110.45332 -0.55229 110.90103 -1.0 111.45332 -1.0 C 112.00562 -1.0 112.45332 -0.55229 112.45332 0.0 Z M 111.45332 0.0  " />
 </g>
 </g>
 <g transform="translate(111.45332,0.0)">
 <g fill="#000">
 <text style="stroke:none" transform="scale(1,-1) translate(0.0,0)" text-anchor="middle"  font-size="10"> 
<g fill="#000">
 <g stroke="none"> </g> </g>
 </text> 
</g>
 </g>
 </g>
 </g>
 <g stroke="#000">
 <g fill="#000">
 <g stroke="#000">
 <g fill="#000">
 <path d=" M 92.49146 44.78275 C 92.49146 45.33504 92.04375 45.78275 91.49146 45.78275 C 90.93916 45.78275 90.49146 45.33504 90.49146 44.78275 C 90.49146 44.23045 90.93916 43.78275 91.49146 43.78275 C 92.04375 43.78275 92.49146 44.23045 92.49146 44.78275 Z M 91.49146 44.78275  " />
 </g>
 </g>
 <g transform="translate(91.49146,44.78275)">
 <g fill="#000">
 <text style="stroke:none" transform="scale(1,-1) translate(0.0,0)" text-anchor="middle"  font-size="10"> 
<g fill="#000">
 <g stroke="none"> </g> </g>
 </text> 
</g>
 </g>
 </g>
 </g>
 <g stroke="#000" fill="#000">
 <g stroke="#000" fill="#000">
 </g>
 <g transform="translate(114.9863,-10.36629)">
 <g fill="#000">
 <text style="stroke:none" transform="scale(1,-1) translate(4.60416,0)" text-anchor="middle"  font-size="10"> 
<g fill="#000">
 <g stroke="none"> <tspan font-family="\cmmi" font-size="\10">K</tspan></g> </g>
 </text> 
</g>
 </g>
 </g>
 <g stroke="#000" fill="#000">
 <g stroke="#000" fill="#000">
 </g>
 <g transform="translate(81.15291,48.31572)">
 <g fill="#000">
 <text style="stroke:none" transform="scale(1,-1) translate(3.40279,0)" text-anchor="middle"  font-size="10"> 
<g fill="#000">
 <g stroke="none"> <tspan font-family="\cmmi" font-size="\10">L</tspan> </g> </g>
 </text> 
</g>
 </g>
 </g>
 <g stroke="#808080" fill="#808080">
 <g stroke-width="0.2">
 <g stroke-dasharray="none" stroke-dashoffset="0.0">
 <g stroke="#808080" fill="#808080">
 <g stroke-width="0.2">
 <g stroke-dasharray="none" stroke-dashoffset="0.0">
 <path d=" M 138.24545 26.82039 C 138.24545 41.63329 126.23756 53.64117 111.42467 53.64117 C 96.61177 53.64117 84.60388 41.63329 84.60388 26.82039 C 84.60388 12.00749 96.61177 -0.0004 111.42467 -0.0004 C 126.23756 -0.0004 138.24545 12.00749 138.24545 26.82039 Z M 111.42467 26.82039  " fill="none"/>
 </g>
 </g>
 </g>
 <g transform="translate(111.42467,26.82039)">
 <g fill="#808080">
 <text style="stroke:none" transform="scale(1,-1) translate(0.0,0)" text-anchor="middle"  font-size="10"> 
<g fill="#808080">
 <g stroke="none"> </g> </g>
 </text> 
</g>
 </g>
 </g>
 </g>
 </g>
 <g stroke="#000">
 <g fill="#000">
 <g stroke="#000">
 <g fill="#000">
 <path d=" M 112.42467 26.82039 C 112.42467 27.37268 111.97696 27.82039 111.42467 27.82039 C 110.87238 27.82039 110.42467 27.37268 110.42467 26.82039 C 110.42467 26.2681 110.87238 25.82039 111.42467 25.82039 C 111.97696 25.82039 112.42467 26.2681 112.42467 26.82039 Z M 111.42467 26.82039  " />
 </g>
 </g>
 <g transform="translate(111.42467,26.82039)">
 <g fill="#000">
 <text style="stroke:none" transform="scale(1,-1) translate(0.0,0)" text-anchor="middle"  font-size="10"> 
<g fill="#000">
 <g stroke="none"> </g> </g>
 </text> 
</g>
 </g>
 </g>
 </g>
 <g stroke="#000" fill="#000">
 <g stroke="#000" fill="#000">
 </g>
 <g transform="translate(105.22884,16.4541)">
 <g fill="#000">
 <text style="stroke:none" transform="scale(1,-1) translate(6.19583,0)" text-anchor="middle"  font-size="10"> 
<g fill="#000">
 <g stroke="none"> <tspan font-family="\cmmi" font-size="\10">O</tspan><tspan baseline-shift="sub"><tspan font-family="\cmr" font-size="\7">1</tspan></tspan></g> </g>
 </text> 
</g>
 </g>
 </g>
 <g stroke="#000">
 <g fill="#000">
 <g stroke="#000">
 <g fill="#000">
 <path d=" M 32.45488 0.0 C 32.45488 0.55229 32.00717 1.0 31.45488 1.0 C 30.90259 1.0 30.45488 0.55229 30.45488 0.0 C 30.45488 -0.55229 30.90259 -1.0 31.45488 -1.0 C 32.00717 -1.0 32.45488 -0.55229 32.45488 0.0 Z M 31.45488 0.0  " />
 </g>
 </g>
 <g transform="translate(31.45488,0.0)">
 <g fill="#000">
 <text style="stroke:none" transform="scale(1,-1) translate(0.0,0)" text-anchor="middle"  font-size="10"> 
<g fill="#000">
 <g stroke="none"> </g> </g>
 </text> 
</g>
 </g>
 </g>
 </g>
 <g stroke="#000">
 <g fill="#000">
 <g stroke="#000">
 <g fill="#000">
 <path d=" M 65.38716 14.67102 C 65.38716 15.22331 64.93945 15.67102 64.38716 15.67102 C 63.83487 15.67102 63.38716 15.22331 63.38716 14.67102 C 63.38716 14.11873 63.83487 13.67102 64.38716 13.67102 C 64.93945 13.67102 65.38716 14.11873 65.38716 14.67102 Z M 64.38716 14.67102  " />
 </g>
 </g>
 <g transform="translate(64.38716,14.67102)">
 <g fill="#000">
 <text style="stroke:none" transform="scale(1,-1) translate(0.0,0)" text-anchor="middle"  font-size="10"> 
<g fill="#000">
 <g stroke="none"> </g> </g>
 </text> 
</g>
 </g>
 </g>
 </g>
 <g stroke="#000" fill="#000">
 <g stroke="#000" fill="#000">
 </g>
 <g transform="translate(26.05905,-10.36629)">
 <g fill="#000">
 <text style="stroke:none" transform="scale(1,-1) translate(5.39583,0)" text-anchor="middle"  font-size="10"> 
<g fill="#000">
 <g stroke="none"> <tspan font-family="\cmmi" font-size="\10">M</tspan> </g> </g>
 </text> 
</g>
 </g>
 </g>
 <g stroke="#000" fill="#000">
 <g stroke="#000" fill="#000">
 </g>
 <g transform="translate(51.72922,18.204)">
 <g fill="#000">
 <text style="stroke:none" transform="scale(1,-1) translate(4.56248,0)" text-anchor="middle"  font-size="10"> 
<g fill="#000">
 <g stroke="none"> <tspan font-family="\cmmi" font-size="\10">N</tspan> </g> </g>
 </text> 
</g>
 </g>
 </g>
 <g stroke="#808080" fill="#808080">
 <g stroke-width="0.2">
 <g stroke-dasharray="none" stroke-dashoffset="0.0">
 <g stroke="#808080" fill="#808080">
 <g stroke-width="0.2">
 <g stroke-dasharray="none" stroke-dashoffset="0.0">
 <path d=" M 75.74608 44.29964 C 75.74608 68.76633 55.91246 88.59995 31.44577 88.59995 C 6.97908 88.59995 -12.85454 68.76633 -12.85454 44.29964 C -12.85454 19.83295 6.97908 -0.00067 31.44577 -0.00067 C 55.91246 -0.00067 75.74608 19.83295 75.74608 44.29964 Z M 31.44577 44.29964  " fill="none"/>
 </g>
 </g>
 </g>
 <g transform="translate(31.44577,44.29964)">
 <g fill="#808080">
 <text style="stroke:none" transform="scale(1,-1) translate(0.0,0)" text-anchor="middle"  font-size="10"> 
<g fill="#808080">
 <g stroke="none"> </g> </g>
 </text> 
</g>
 </g>
 </g>
 </g>
 </g>
 <g stroke="#000">
 <g fill="#000">
 <g stroke="#000">
 <g fill="#000">
 <path d=" M 32.44577 44.29964 C 32.44577 44.85193 31.99806 45.29964 31.44577 45.29964 C 30.89348 45.29964 30.44577 44.85193 30.44577 44.29964 C 30.44577 43.74734 30.89348 43.29964 31.44577 43.29964 C 31.99806 43.29964 32.44577 43.74734 32.44577 44.29964 Z M 31.44577 44.29964  " />
 </g>
 </g>
 <g transform="translate(31.44577,44.29964)">
 <g fill="#000">
 <text style="stroke:none" transform="scale(1,-1) translate(0.0,0)" text-anchor="middle"  font-size="10"> 
<g fill="#000">
 <g stroke="none"> </g> </g>
 </text> 
</g>
 </g>
 </g>
 </g>
 <g stroke="#000" fill="#000">
 <g stroke="#000" fill="#000">
 </g>
 <g transform="translate(25.24994,33.93335)">
 <g fill="#000">
 <text style="stroke:none" transform="scale(1,-1) translate(6.19583,0)" text-anchor="middle"  font-size="10"> 
<g fill="#000">
 <g stroke="none"> <tspan font-family="\cmmi" font-size="\10">O</tspan><tspan baseline-shift="sub"><tspan font-family="\cmr" font-size="\7">2</tspan></tspan></g> </g>
 </text> 
</g>
 </g>
 </g>
 <g stroke-width="0.2">
 <g stroke="#000" fill="#000">
 <g stroke-dasharray="none" stroke-dashoffset="0.0">
 <g stroke-linecap="round">
 <g stroke-dasharray="3.0,3.0" stroke-dashoffset="0.0">
 <g stroke="#00f" fill="#00f">
 <path d=" M 111.42467 26.82039 M 127.42018 23.32458 L 15.45026 47.79544  " fill="none"/>
 </g>
 </g>
 </g>
 </g>
 </g>
 </g>
 <g stroke-width="0.2">
 <g stroke="#000" fill="#000">
 <g stroke-dasharray="none" stroke-dashoffset="0.0">
 <g stroke-linecap="round">
 <g stroke-dasharray="3.0,3.0" stroke-dashoffset="0.0">
 <g stroke="#00f" fill="#00f">
 <path d=" M 91.49146 44.78275 M 87.49915 53.73914 L 115.44563 -8.95639  " fill="none"/>
 </g>
 </g>
 </g>
 </g>
 </g>
 </g>
 <g stroke-width="0.2">
 <g stroke="#000" fill="#000">
 <g stroke-dasharray="none" stroke-dashoffset="0.0">
 <g stroke-linecap="round">
 <g stroke-dasharray="3.0,3.0" stroke-dashoffset="0.0">
 <g stroke="#00f" fill="#00f">
 <path d=" M 31.45488 0.0 M 18.10196 -5.94801 L 111.57344 35.68858  " fill="none"/>
 </g>
 </g>
 </g>
 </g>
 </g>
 </g>
 <g stroke="#000">
 <g fill="#000">
 <g stroke="#000">
 <g fill="#000">
 <path d=" M 99.22052 29.74055 C 99.22052 30.29285 98.77281 30.74055 98.22052 30.74055 C 97.66823 30.74055 97.22052 30.29285 97.22052 29.74055 C 97.22052 29.18826 97.66823 28.74055 98.22052 28.74055 C 98.77281 28.74055 99.22052 29.18826 99.22052 29.74055 Z M 98.22052 29.74055  " />
 </g>
 </g>
 <g transform="translate(98.22052,29.74055)">
 <g fill="#000">
 <text style="stroke:none" transform="scale(1,-1) translate(0.0,0)" text-anchor="middle"  font-size="10"> 
<g fill="#000">
 <g stroke="none"> </g> </g>
 </text> 
</g>
 </g>
 </g>
 </g>
 <g stroke="#000" fill="#000">
 <g stroke="#000" fill="#000">
 </g>
 <g transform="translate(95.63025,19.37427)">
 <g fill="#000">
 <text style="stroke:none" transform="scale(1,-1) translate(2.59027,0)" text-anchor="middle"  font-size="10"> 
<g fill="#000">
 <g stroke="none"> <tspan font-family="\cmmi" font-size="\10">I</tspan> </g> </g>
 </text> 
</g>
 </g>
 </g>
 <g stroke="#000">
 <g fill="#000">
 <g stroke="#000">
 <g fill="#000">
 <path d=" M 235.09508 0.0 C 235.09508 0.55229 234.64737 1.0 234.09508 1.0 C 233.54279 1.0 233.09508 0.55229 233.09508 0.0 C 233.09508 -0.55229 233.54279 -1.0 234.09508 -1.0 C 234.64737 -1.0 235.09508 -0.55229 235.09508 0.0 Z M 234.09508 0.0  " />
 </g>
 </g>
 <g transform="translate(234.09508,0.0)">
 <g fill="#000">
 <text style="stroke:none" transform="scale(1,-1) translate(0.0,0)" text-anchor="middle"  font-size="10"> 
<g fill="#000">
 <g stroke="none"> </g> </g>
 </text> 
</g>
 </g>
 </g>
 </g>
 <g stroke="#000" fill="#000">
 <g stroke="#000" fill="#000">
 </g>
 <g transform="translate(237.62805,-10.36629)">
 <g fill="#000">
 <text style="stroke:none" transform="scale(1,-1) translate(3.90451,0)" text-anchor="middle"  font-size="10"> 
<g fill="#000">
 <g stroke="none"> <tspan font-family="\cmmi" font-size="\10">P</tspan> </g> </g>
 </text> 
</g>
 </g>
 </g>
 <g stroke-width="0.2">
 <g stroke="#000" fill="#000">
 <g stroke-dasharray="none" stroke-dashoffset="0.0">
 <g stroke-linecap="round">
 <path d=" M 31.45488 0.0 M -9.07253 0.0 L 274.6225 0.0  " fill="none"/>
 </g>
 </g>
 </g>
 </g>
 <g stroke="#000">
 <g fill="#000">
 <g stroke="#000">
 <g fill="#000">
 <path d=" M 123.5948 51.18092 C 123.5948 51.73322 123.1471 52.18092 122.5948 52.18092 C 122.04251 52.18092 121.5948 51.73322 121.5948 51.18092 C 121.5948 50.62863 122.04251 50.18092 122.5948 50.18092 C 123.1471 50.18092 123.5948 50.62863 123.5948 51.18092 Z M 122.5948 51.18092  " />
 </g>
 </g>
 <g transform="translate(122.5948,51.18092)">
 <g fill="#000">
 <text style="stroke:none" transform="scale(1,-1) translate(0.0,0)" text-anchor="middle"  font-size="10"> 
<g fill="#000">
 <g stroke="none"> </g> </g>
 </text> 
</g>
 </g>
 </g>
 </g>
 <g stroke="#000">
 <g fill="#000">
 <g stroke="#000">
 <g fill="#000">
 <path d=" M 50.92276 84.53876 C 50.92276 85.09105 50.47505 85.53876 49.92276 85.53876 C 49.37047 85.53876 48.92276 85.09105 48.92276 84.53876 C 48.92276 83.98647 49.37047 83.53876 49.92276 83.53876 C 50.47505 83.53876 50.92276 83.98647 50.92276 84.53876 Z M 49.92276 84.53876  " />
 </g>
 </g>
 <g transform="translate(49.92276,84.53876)">
 <g fill="#000">
 <text style="stroke:none" transform="scale(1,-1) translate(0.0,0)" text-anchor="middle"  font-size="10"> 
<g fill="#000">
 <g stroke="none"> </g> </g>
 </text> 
</g>
 </g>
 </g>
 </g>
 <g stroke="#000" fill="#000">
 <g stroke="#000" fill="#000">
 </g>
 <g transform="translate(126.12778,54.7139)">
 <g fill="#000">
 <text style="stroke:none" transform="scale(1,-1) translate(4.53471,0)" text-anchor="middle"  font-size="10"> 
<g fill="#000">
 <g stroke="none"> <tspan font-family="\cmmi" font-size="\10">X</tspan> </g> </g>
 </text> 
</g>
 </g>
 </g>
 <g stroke="#000" fill="#000">
 <g stroke="#000" fill="#000">
 </g>
 <g transform="translate(53.45573,88.07173)">
 <g fill="#000">
 <text style="stroke:none" transform="scale(1,-1) translate(4.01389,0)" text-anchor="middle"  font-size="10"> 
<g fill="#000">
 <g stroke="none"> <tspan font-family="\cmmi" font-size="\10">Y </tspan> </g> </g>
 </text> 
</g>
 </g>
 </g>
 <g stroke-width="0.2">
 <g stroke="#000" fill="#000">
 <g stroke-dasharray="none" stroke-dashoffset="0.0">
 <g stroke-linecap="round">
 <path d=" M 234.09508 0.0 M 270.92896 -16.90747 L 13.08888 101.44624  " fill="none"/>
 </g>
 </g>
 </g>
 </g>
 <g stroke="#000">
 <g fill="#000">
 <g stroke="#000">
 <g fill="#000">
 <path d=" M 52.16994 0.0 C 52.16994 0.55229 51.72223 1.0 51.16994 1.0 C 50.61765 1.0 50.16994 0.55229 50.16994 0.0 C 50.16994 -0.55229 50.61765 -1.0 51.16994 -1.0 C 51.72223 -1.0 52.16994 -0.55229 52.16994 0.0 Z M 51.16994 0.0  " />
 </g>
 </g>
 <g transform="translate(51.16994,0.0)">
 <g fill="#000">
 <text style="stroke:none" transform="scale(1,-1) translate(0.0,0)" text-anchor="middle"  font-size="10"> 
<g fill="#000">
 <g stroke="none"> </g> </g>
 </text> 
</g>
 </g>
 </g>
 </g>
 <g stroke="#000" fill="#000">
 <g stroke="#000" fill="#000">
 </g>
 <g transform="translate(54.70291,-10.36629)">
 <g fill="#000">
 <text style="stroke:none" transform="scale(1,-1) translate(3.75,0)" text-anchor="middle"  font-size="10"> 
<g fill="#000">
 <g stroke="none"> <tspan font-family="\cmmi" font-size="\10">A</tspan> </g> </g>
 </text> 
</g>
 </g>
 </g>
 <g stroke="#000">
 <g fill="#000">
 <g stroke="#000">
 <g fill="#000">
 <path d=" M 105.63834 59.40042 C 105.63834 59.95271 105.19063 60.40042 104.63834 60.40042 C 104.08604 60.40042 103.63834 59.95271 103.63834 59.40042 C 103.63834 58.84813 104.08604 58.40042 104.63834 58.40042 C 105.19063 58.40042 105.63834 58.84813 105.63834 59.40042 Z M 104.63834 59.40042  " />
 </g>
 </g>
 <g transform="translate(104.63834,59.40042)">
 <g fill="#000">
 <text style="stroke:none" transform="scale(1,-1) translate(0.0,0)" text-anchor="middle"  font-size="10"> 
<g fill="#000">
 <g stroke="none"> </g> </g>
 </text> 
</g>
 </g>
 </g>
 </g>
 <g stroke="#000" fill="#000">
 <g stroke="#000" fill="#000">
 </g>
 <g transform="translate(100.59494,62.9334)">
 <g fill="#000">
 <text style="stroke:none" transform="scale(1,-1) translate(4.0434,0)" text-anchor="middle"  font-size="10"> 
<g fill="#000">
 <g stroke="none"> <tspan font-family="\cmmi" font-size="\10">B</tspan> </g> </g>
 </text> 
</g>
 </g>
 </g>
 <g stroke-width="0.2">
 <g stroke="#000" fill="#000">
 <g stroke-dasharray="none" stroke-dashoffset="0.0">
 <g stroke-linecap="round">
 <path d=" M 51.16994 0.0 M 40.47643 -11.87988 L 115.33186 71.2803  " fill="none"/>
 </g>
 </g>
 </g>
 </g>
 </g>
 </g>
 
                                                                         </g> 
</svg> 
