<?xml version="1.0" encoding="iso-8859-1" standalone="no"?> 
<?xml-stylesheet href="doc.css" type="text/css"?> 
<svg xmlns="http://www.w3.org/2000/svg" xmlns:xlink="http://www.w3.org/1999/xlink" width="173.20639pt" height="173.02835pt" viewBox="-17.10185 -31.31912 173.20639 173.02835 "> 
<g transform="translate(0, 141.70923 ) scale(1,-1) translate(0,31.31912 )"> 
         <g stroke="#000" fill="#000">
 <g stroke-width="0.4">
 <g stroke="#000">
 <g fill="#000">
 <g stroke="#000">
 <g fill="#000">
 <path d=" M 1.0 0.0 C 1.0 0.55229 0.55229 1.0 0.0 1.0 C -0.55229 1.0 -1.0 0.55229 -1.0 0.0 C -1.0 -0.55229 -0.55229 -1.0 0.0 -1.0 C 0.55229 -1.0 1.0 -0.55229 1.0 0.0 Z M 0.0 0.0  " />
 </g>
 </g>
 <g fill="#000">
 <text style="stroke:none" transform="scale(1,-1) translate(0.0,0)" text-anchor="middle"  font-size="10"> 
<g fill="#000">
 <g stroke="none"> </g> </g>
 </text> 
</g>
 </g>
 </g>
 <g stroke="#000">
 <g fill="#000">
 <g stroke="#000">
 <g fill="#000">
 <path d=" M 129.00996 0.0 C 129.00996 0.55229 128.56226 1.0 128.00996 1.0 C 127.45767 1.0 127.00996 0.55229 127.00996 0.0 C 127.00996 -0.55229 127.45767 -1.0 128.00996 -1.0 C 128.56226 -1.0 129.00996 -0.55229 129.00996 0.0 Z M 128.00996 0.0  " />
 </g>
 </g>
 <g transform="translate(128.00996,0.0)">
 <g fill="#000">
 <text style="stroke:none" transform="scale(1,-1) translate(0.0,0)" text-anchor="middle"  font-size="10"> 
<g fill="#000">
 <g stroke="none"> </g> </g>
 </text> 
</g>
 </g>
 </g>
 </g>
 <g stroke="#000">
 <g fill="#000">
 <g stroke="#000">
 <g fill="#000">
 <path d=" M 86.33997 128.00996 C 86.33997 128.56226 85.89226 129.00996 85.33997 129.00996 C 84.78767 129.00996 84.33997 128.56226 84.33997 128.00996 C 84.33997 127.45767 84.78767 127.00996 85.33997 127.00996 C 85.89226 127.00996 86.33997 127.45767 86.33997 128.00996 Z M 85.33997 128.00996  " />
 </g>
 </g>
 <g transform="translate(85.33997,128.00996)">
 <g fill="#000">
 <text style="stroke:none" transform="scale(1,-1) translate(0.0,0)" text-anchor="middle"  font-size="10"> 
<g fill="#000">
 <g stroke="none"> </g> </g>
 </text> 
</g>
 </g>
 </g>
 </g>
 <g stroke="#000" fill="#000">
 <g stroke="#000" fill="#000">
 </g>
 <g transform="translate(-11.03297,-10.36629)">
 <g fill="#000">
 <text style="stroke:none" transform="scale(1,-1) translate(3.75,0)" text-anchor="middle"  font-size="10"> 
<g fill="#000">
 <g stroke="none"> <tspan font-family="\cmmi" font-size="\10">A</tspan></g> </g>
 </text> 
</g>
 </g>
 </g>
 <g stroke="#000" fill="#000">
 <g stroke="#000" fill="#000">
 </g>
 <g transform="translate(131.54294,-10.36629)">
 <g fill="#000">
 <text style="stroke:none" transform="scale(1,-1) translate(4.0434,0)" text-anchor="middle"  font-size="10"> 
<g fill="#000">
 <g stroke="none"> <tspan font-family="\cmmi" font-size="\10">B</tspan></g> </g>
 </text> 
</g>
 </g>
 </g>
 <g stroke="#000" fill="#000">
 <g stroke="#000" fill="#000">
 </g>
 <g transform="translate(88.87294,131.54294)">
 <g fill="#000">
 <text style="stroke:none" transform="scale(1,-1) translate(3.93124,0)" text-anchor="middle"  font-size="10"> 
<g fill="#000">
 <g stroke="none"> <tspan font-family="\cmmi" font-size="\10">C</tspan> </g> </g>
 </text> 
</g>
 </g>
 </g>
 <g stroke="#808080" fill="#808080">
 <g stroke-width="0.2">
 <g stroke-dasharray="none" stroke-dashoffset="0.0">
 <g stroke="#808080" fill="#808080">
 <g stroke-width="0.2">
 <g stroke-dasharray="none" stroke-dashoffset="0.0">
 <path d=" M 144.95709 49.76035 C 144.95709 94.48465 108.70192 130.73982 63.97762 130.73982 C 19.25331 130.73982 -17.00186 94.48465 -17.00186 49.76035 C -17.00186 5.03604 19.25331 -31.21913 63.97762 -31.21913 C 108.70192 -31.21913 144.95709 5.03604 144.95709 49.76035 Z M 63.97762 49.76035  " fill="none"/>
 </g>
 </g>
 </g>
 <g transform="translate(63.97762,49.76035)">
 <g fill="#808080">
 <text style="stroke:none" transform="scale(1,-1) translate(0.0,0)" text-anchor="middle"  font-size="10"> 
<g fill="#808080">
 <g stroke="none"> </g> </g>
 </text> 
</g>
 </g>
 </g>
 </g>
 </g>
 <g stroke-width="0.2">
 <g stroke="#000" fill="#000">
 <g stroke-dasharray="none" stroke-dashoffset="0.0">
 <g stroke-linecap="round">
 <path d=" M 0.0 0.0 M 0.0 0.0 L 85.33997 128.00996  " fill="none"/>
 </g>
 </g>
 </g>
 </g>
 <g stroke-width="0.2">
 <g stroke="#000" fill="#000">
 <g stroke-dasharray="none" stroke-dashoffset="0.0">
 <g stroke-linecap="round">
 <path d=" M 128.00996 0.0 M 128.00996 0.0 L 85.33997 128.00996  " fill="none"/>
 </g>
 </g>
 </g>
 </g>
 <g stroke-width="0.2">
 <g stroke="#000" fill="#000">
 <g stroke-dasharray="none" stroke-dashoffset="0.0">
 <g stroke-linecap="round">
 <path d=" M 0.0 0.0 M 0.0 0.0 L 128.00996 0.0  " fill="none"/>
 </g>
 </g>
 </g>
 </g>
 <g stroke="#000">
 <g fill="#000">
 <g stroke="#000">
 <g fill="#000">
 <path d=" M 52.19223 0.0 C 52.19223 0.55229 51.74452 1.0 51.19223 1.0 C 50.63994 1.0 50.19223 0.55229 50.19223 0.0 C 50.19223 -0.55229 50.63994 -1.0 51.19223 -1.0 C 51.74452 -1.0 52.19223 -0.55229 52.19223 0.0 Z M 51.19223 0.0  " />
 </g>
 </g>
 <g transform="translate(51.19223,0.0)">
 <g fill="#000">
 <text style="stroke:none" transform="scale(1,-1) translate(0.0,0)" text-anchor="middle"  font-size="10"> 
<g fill="#000">
 <g stroke="none"> </g> </g>
 </text> 
</g>
 </g>
 </g>
 </g>
 <g stroke="#000" fill="#000">
 <g stroke="#000" fill="#000">
 </g>
 <g transform="translate(54.7252,-10.36629)">
 <g fill="#000">
 <text style="stroke:none" transform="scale(1,-1) translate(4.53471,0)" text-anchor="middle"  font-size="10"> 
<g fill="#000">
 <g stroke="none"> <tspan font-family="\cmmi" font-size="\10">X</tspan></g> </g>
 </text> 
</g>
 </g>
 </g>
 <g stroke-width="0.2">
 <g stroke="#000" fill="#000">
 <g stroke-dasharray="none" stroke-dashoffset="0.0">
 <g stroke-linecap="round">
 <path d=" M 85.33997 128.00996 M 85.33997 128.00996 L 51.19223 0.0  " fill="none"/>
 </g>
 </g>
 </g>
 </g>
 <g stroke="#000">
 <g fill="#000">
 <g stroke="#000">
 <g fill="#000">
 <path d=" M 74.4347 39.30382 C 74.4347 39.85611 73.98698 40.30382 73.4347 40.30382 C 72.8824 40.30382 72.4347 39.85611 72.4347 39.30382 C 72.4347 38.75153 72.8824 38.30382 73.4347 38.30382 C 73.98698 38.30382 74.4347 38.75153 74.4347 39.30382 Z M 73.4347 39.30382  " />
 </g>
 </g>
 <g transform="translate(73.4347,39.30382)">
 <g fill="#000">
 <text style="stroke:none" transform="scale(1,-1) translate(0.0,0)" text-anchor="middle"  font-size="10"> 
<g fill="#000">
 <g stroke="none"> </g> </g>
 </text> 
</g>
 </g>
 </g>
 </g>
 <g stroke="#000" fill="#000">
 <g stroke="#000" fill="#000">
 </g>
 <g transform="translate(76.96767,42.83679)">
 <g fill="#000">
 <text style="stroke:none" transform="scale(1,-1) translate(2.59027,0)" text-anchor="middle"  font-size="10"> 
<g fill="#000">
 <g stroke="none"> <tspan font-family="\cmmi" font-size="\10">I</tspan> </g> </g>
 </text> 
</g>
 </g>
 </g>
 <g stroke="#000">
 <g fill="#000">
 <g stroke="#000">
 <g fill="#000">
 <path d=" M 104.6285 0.0 C 104.6285 0.55229 104.18079 1.0 103.6285 1.0 C 103.0762 1.0 102.6285 0.55229 102.6285 0.0 C 102.6285 -0.55229 103.0762 -1.0 103.6285 -1.0 C 104.18079 -1.0 104.6285 -0.55229 104.6285 0.0 Z M 103.6285 0.0  " />
 </g>
 </g>
 <g transform="translate(103.6285,0.0)">
 <g fill="#000">
 <text style="stroke:none" transform="scale(1,-1) translate(0.0,0)" text-anchor="middle"  font-size="10"> 
<g fill="#000">
 <g stroke="none"> </g> </g>
 </text> 
</g>
 </g>
 </g>
 </g>
 <g stroke="#000">
 <g fill="#000">
 <g stroke="#000">
 <g fill="#000">
 <path d=" M 65.6919 50.64716 C 65.6919 51.19945 65.24419 51.64716 64.6919 51.64716 C 64.1396 51.64716 63.6919 51.19945 63.6919 50.64716 C 63.6919 50.09486 64.1396 49.64716 64.6919 49.64716 C 65.24419 49.64716 65.6919 50.09486 65.6919 50.64716 Z M 64.6919 50.64716  " />
 </g>
 </g>
 <g transform="translate(64.6919,50.64716)">
 <g fill="#000">
 <text style="stroke:none" transform="scale(1,-1) translate(0.0,0)" text-anchor="middle"  font-size="10"> 
<g fill="#000">
 <g stroke="none"> </g> </g>
 </text> 
</g>
 </g>
 </g>
 </g>
 <g stroke="#000" fill="#000">
 <g stroke="#000" fill="#000">
 </g>
 <g transform="translate(54.35335,47.2305)">
 <g fill="#000">
 <text style="stroke:none" transform="scale(1,-1) translate(3.40279,0)" text-anchor="middle"  font-size="10"> 
<g fill="#000">
 <g stroke="none"> <tspan font-family="\cmmi" font-size="\10">L</tspan> </g> </g>
 </text> 
</g>
 </g>
 </g>
 <g stroke="#000" fill="#000">
 <g stroke="#000" fill="#000">
 </g>
 <g transform="translate(90.8872,-10.36629)">
 <g fill="#000">
 <text style="stroke:none" transform="scale(1,-1) translate(4.60416,0)" text-anchor="middle"  font-size="10"> 
<g fill="#000">
 <g stroke="none"> <tspan font-family="\cmmi" font-size="\10">K</tspan></g> </g>
 </text> 
</g>
 </g>
 </g>
 <g stroke="#808080" fill="#808080">
 <g stroke-width="0.2">
 <g stroke-dasharray="none" stroke-dashoffset="0.0">
 <g stroke="#808080" fill="#808080">
 <g stroke-width="0.2">
 <g stroke-dasharray="none" stroke-dashoffset="0.0">
 <path d=" M 143.8588 40.25899 C 143.8588 62.49403 125.83424 80.51859 103.5992 80.51859 C 81.36415 80.51859 63.3396 62.49403 63.3396 40.25899 C 63.3396 18.02394 81.36415 -0.00061 103.5992 -0.00061 C 125.83424 -0.00061 143.8588 18.02394 143.8588 40.25899 Z M 103.5992 40.25899  " fill="none"/>
 </g>
 </g>
 </g>
 <g transform="translate(103.5992,40.25899)">
 <g fill="#808080">
 <text style="stroke:none" transform="scale(1,-1) translate(0.0,0)" text-anchor="middle"  font-size="10"> 
<g fill="#808080">
 <g stroke="none"> </g> </g>
 </text> 
</g>
 </g>
 </g>
 </g>
 </g>
 <g stroke="#000">
 <g fill="#000">
 <g stroke="#000">
 <g fill="#000">
 <path d=" M 143.00595 27.12819 C 143.00595 27.68048 142.55824 28.12819 142.00595 28.12819 C 141.45366 28.12819 141.00595 27.68048 141.00595 27.12819 C 141.00595 26.5759 141.45366 26.12819 142.00595 26.12819 C 142.55824 26.12819 143.00595 26.5759 143.00595 27.12819 Z M 142.00595 27.12819  " />
 </g>
 </g>
 <g transform="translate(142.00595,27.12819)">
 <g fill="#000">
 <text style="stroke:none" transform="scale(1,-1) translate(0.0,0)" text-anchor="middle"  font-size="10"> 
<g fill="#000">
 <g stroke="none"> </g> </g>
 </text> 
</g>
 </g>
 </g>
 </g>
 <g stroke="#000" fill="#000">
 <g stroke="#000" fill="#000">
 </g>
 <g transform="translate(145.53893,16.7619)">
 <g fill="#000">
 <text style="stroke:none" transform="scale(1,-1) translate(3.61632,0)" text-anchor="middle"  font-size="10"> 
<g fill="#000">
 <g stroke="none"> <tspan font-family="\cmmi" font-size="\10">T</tspan> </g> </g>
 </text> 
</g>
 </g>
 </g>
 <g stroke-width="0.2">
 <g stroke="#000" fill="#000">
 <g stroke-dasharray="none" stroke-dashoffset="0.0">
 <g stroke-linecap="round">
 <g stroke-dasharray="3.0,3.0" stroke-dashoffset="0.0">
 <g stroke="#00f" fill="#00f">
 <path d=" M 64.6919 50.64716 M 56.9047 60.77641 L 111.4157 -10.12926  " fill="none"/>
 </g>
 </g>
 </g>
 </g>
 </g>
 </g>
 </g>
 </g>
 
                                            </g> 
</svg> 
