<?xml version="1.0" encoding="iso-8859-1" standalone="no"?> 
<?xml-stylesheet href="doc.css" type="text/css"?> 
<svg xmlns="http://www.w3.org/2000/svg" xmlns:xlink="http://www.w3.org/1999/xlink" width="125.20273pt" height="120.00948pt" viewBox="-14.36595 -20.95198 125.20273 120.00948 "> 
<g transform="translate(0, 99.0575 ) scale(1,-1) translate(0,20.95198 )"> 
        <g stroke="#000" fill="#000">
 <g stroke-width="0.4">
 <g stroke="#000">
 <g fill="#000">
 <g stroke="#000">
 <g fill="#000">
 <path d=" M 1.0 0.0 C 1.0 0.55229 0.55229 1.0 0.0 1.0 C -0.55229 1.0 -1.0 0.55229 -1.0 0.0 C -1.0 -0.55229 -0.55229 -1.0 0.0 -1.0 C 0.55229 -1.0 1.0 -0.55229 1.0 0.0 Z M 0.0 0.0  " />
 </g>
 </g>
 <g fill="#000">
 <text style="stroke:none" transform="scale(1,-1) translate(0.0,0)" text-anchor="middle"  font-size="10"> 
<g fill="#000">
 <g stroke="none"> </g> </g>
 </text> 
</g>
 </g>
 </g>
 <g stroke="#000">
 <g fill="#000">
 <g stroke="#000">
 <g fill="#000">
 <path d=" M 86.35823 0.0 C 86.35823 0.55229 85.91052 1.0 85.35823 1.0 C 84.80594 1.0 84.35823 0.55229 84.35823 0.0 C 84.35823 -0.55229 84.80594 -1.0 85.35823 -1.0 C 85.91052 -1.0 86.35823 -0.55229 86.35823 0.0 Z M 85.35823 0.0  " />
 </g>
 </g>
 <g transform="translate(85.35823,0.0)">
 <g fill="#000">
 <text style="stroke:none" transform="scale(1,-1) translate(0.0,0)" text-anchor="middle"  font-size="10"> 
<g fill="#000">
 <g stroke="none"> </g> </g>
 </text> 
</g>
 </g>
 </g>
 </g>
 <g stroke="#000">
 <g fill="#000">
 <g stroke="#000">
 <g fill="#000">
 <path d=" M 57.90549 85.35823 C 57.90549 85.91052 57.45778 86.35823 56.90549 86.35823 C 56.3532 86.35823 55.90549 85.91052 55.90549 85.35823 C 55.90549 84.80594 56.3532 84.35823 56.90549 84.35823 C 57.45778 84.35823 57.90549 84.80594 57.90549 85.35823 Z M 56.90549 85.35823  " />
 </g>
 </g>
 <g transform="translate(56.90549,85.35823)">
 <g fill="#000">
 <text style="stroke:none" transform="scale(1,-1) translate(0.0,0)" text-anchor="middle"  font-size="10"> 
<g fill="#000">
 <g stroke="none"> </g> </g>
 </text> 
</g>
 </g>
 </g>
 </g>
 <g stroke="#000" fill="#000">
 <g stroke="#000" fill="#000">
 </g>
 <g transform="translate(-11.03297,-10.36629)">
 <g fill="#000">
 <text style="stroke:none" transform="scale(1,-1) translate(3.75,0)" text-anchor="middle"  font-size="10"> 
<g fill="#000">
 <g stroke="none"> <tspan font-family="\cmmi" font-size="\10">A</tspan></g> </g>
 </text> 
</g>
 </g>
 </g>
 <g stroke="#000" fill="#000">
 <g stroke="#000" fill="#000">
 </g>
 <g transform="translate(88.8912,-10.36629)">
 <g fill="#000">
 <text style="stroke:none" transform="scale(1,-1) translate(4.0434,0)" text-anchor="middle"  font-size="10"> 
<g fill="#000">
 <g stroke="none"> <tspan font-family="\cmmi" font-size="\10">B</tspan></g> </g>
 </text> 
</g>
 </g>
 </g>
 <g stroke="#000" fill="#000">
 <g stroke="#000" fill="#000">
 </g>
 <g transform="translate(60.43846,88.8912)">
 <g fill="#000">
 <text style="stroke:none" transform="scale(1,-1) translate(3.93124,0)" text-anchor="middle"  font-size="10"> 
<g fill="#000">
 <g stroke="none"> <tspan font-family="\cmmi" font-size="\10">C</tspan> </g> </g>
 </text> 
</g>
 </g>
 </g>
 <g stroke="#808080" fill="#808080">
 <g stroke-width="0.2">
 <g stroke-dasharray="none" stroke-dashoffset="0.0">
 <g stroke="#808080" fill="#808080">
 <g stroke-width="0.2">
 <g stroke-dasharray="none" stroke-dashoffset="0.0">
 <path d=" M 96.7261 33.195 C 96.7261 63.04472 72.52882 87.242 42.67911 87.242 C 12.82939 87.242 -11.36789 63.04472 -11.36789 33.195 C -11.36789 3.34529 12.82939 -20.85199 42.67911 -20.85199 C 72.52882 -20.85199 96.7261 3.34529 96.7261 33.195 Z M 42.67911 33.195  " fill="none"/>
 </g>
 </g>
 </g>
 <g transform="translate(42.67911,33.195)">
 <g fill="#808080">
 <text style="stroke:none" transform="scale(1,-1) translate(0.0,0)" text-anchor="middle"  font-size="10"> 
<g fill="#808080">
 <g stroke="none"> </g> </g>
 </text> 
</g>
 </g>
 </g>
 </g>
 </g>
 <g stroke-width="0.2">
 <g stroke="#000" fill="#000">
 <g stroke-dasharray="none" stroke-dashoffset="0.0">
 <g stroke-linecap="round">
 <path d=" M 0.0 0.0 M 0.0 0.0 L 56.90549 85.35823  " fill="none"/>
 </g>
 </g>
 </g>
 </g>
 <g stroke-width="0.2">
 <g stroke="#000" fill="#000">
 <g stroke-dasharray="none" stroke-dashoffset="0.0">
 <g stroke-linecap="round">
 <path d=" M 85.35823 0.0 M 85.35823 0.0 L 56.90549 85.35823  " fill="none"/>
 </g>
 </g>
 </g>
 </g>
 <g stroke-width="0.2">
 <g stroke="#000" fill="#000">
 <g stroke-dasharray="none" stroke-dashoffset="0.0">
 <g stroke-linecap="round">
 <path d=" M 0.0 0.0 M 0.0 0.0 L 85.35823 0.0  " fill="none"/>
 </g>
 </g>
 </g>
 </g>
 <g stroke="#000">
 <g fill="#000">
 <g stroke="#000">
 <g fill="#000">
 <path d=" M 49.9852 26.21597 C 49.9852 26.76826 49.53749 27.21597 48.9852 27.21597 C 48.4329 27.21597 47.9852 26.76826 47.9852 26.21597 C 47.9852 25.66368 48.4329 25.21597 48.9852 25.21597 C 49.53749 25.21597 49.9852 25.66368 49.9852 26.21597 Z M 48.9852 26.21597  " />
 </g>
 </g>
 <g transform="translate(48.9852,26.21597)">
 <g fill="#000">
 <text style="stroke:none" transform="scale(1,-1) translate(0.0,0)" text-anchor="middle"  font-size="10"> 
<g fill="#000">
 <g stroke="none"> </g> </g>
 </text> 
</g>
 </g>
 </g>
 </g>
 <g stroke="#000" fill="#000">
 <g stroke="#000" fill="#000">
 </g>
 <g transform="translate(52.51817,29.74895)">
 <g fill="#000">
 <text style="stroke:none" transform="scale(1,-1) translate(2.59027,0)" text-anchor="middle"  font-size="10"> 
<g fill="#000">
 <g stroke="none"> <tspan font-family="\cmmi" font-size="\10">I</tspan> </g> </g>
 </text> 
</g>
 </g>
 </g>
 <g stroke="#000">
 <g fill="#000">
 <g stroke="#000">
 <g fill="#000">
 <path d=" M 64.01576 0.0 C 64.01576 0.55229 63.56805 1.0 63.01576 1.0 C 62.46347 1.0 62.01576 0.55229 62.01576 0.0 C 62.01576 -0.55229 62.46347 -1.0 63.01576 -1.0 C 63.56805 -1.0 64.01576 -0.55229 64.01576 0.0 Z M 63.01576 0.0  " />
 </g>
 </g>
 <g transform="translate(63.01576,0.0)">
 <g fill="#000">
 <text style="stroke:none" transform="scale(1,-1) translate(0.0,0)" text-anchor="middle"  font-size="10"> 
<g fill="#000">
 <g stroke="none"> </g> </g>
 </text> 
</g>
 </g>
 </g>
 </g>
 <g stroke="#000">
 <g fill="#000">
 <g stroke="#000">
 <g fill="#000">
 <path d=" M 35.95464 52.43195 C 35.95464 52.98424 35.50693 53.43195 34.95464 53.43195 C 34.40234 53.43195 33.95464 52.98424 33.95464 52.43195 C 33.95464 51.87965 34.40234 51.43195 34.95464 51.43195 C 35.50693 51.43195 35.95464 51.87965 35.95464 52.43195 Z M 34.95464 52.43195  " />
 </g>
 </g>
 <g transform="translate(34.95464,52.43195)">
 <g fill="#000">
 <text style="stroke:none" transform="scale(1,-1) translate(0.0,0)" text-anchor="middle"  font-size="10"> 
<g fill="#000">
 <g stroke="none"> </g> </g>
 </text> 
</g>
 </g>
 </g>
 </g>
 <g stroke="#000" fill="#000">
 <g stroke="#000" fill="#000">
 </g>
 <g transform="translate(24.61609,49.01529)">
 <g fill="#000">
 <text style="stroke:none" transform="scale(1,-1) translate(3.40279,0)" text-anchor="middle"  font-size="10"> 
<g fill="#000">
 <g stroke="none"> <tspan font-family="\cmmi" font-size="\10">L</tspan> </g> </g>
 </text> 
</g>
 </g>
 </g>
 <g stroke="#000" fill="#000">
 <g stroke="#000" fill="#000">
 </g>
 <g transform="translate(50.27448,-10.36629)">
 <g fill="#000">
 <text style="stroke:none" transform="scale(1,-1) translate(4.60416,0)" text-anchor="middle"  font-size="10"> 
<g fill="#000">
 <g stroke="none"> <tspan font-family="\cmmi" font-size="\10">K</tspan></g> </g>
 </text> 
</g>
 </g>
 </g>
 <g stroke="#808080" fill="#808080">
 <g stroke-width="0.2">
 <g stroke-dasharray="none" stroke-dashoffset="0.0">
 <g stroke="#808080" fill="#808080">
 <g stroke-width="0.2">
 <g stroke-dasharray="none" stroke-dashoffset="0.0">
 <path d=" M 96.74043 33.72467 C 96.74043 52.35052 81.64162 67.44934 63.01576 67.44934 C 44.38991 67.44934 29.29109 52.35052 29.29109 33.72467 C 29.29109 15.09882 44.38991 0.0 63.01576 0.0 C 81.64162 0.0 96.74043 15.09882 96.74043 33.72467 Z M 63.01576 33.72467  " fill="none"/>
 </g>
 </g>
 </g>
 <g transform="translate(63.01576,33.72467)">
 <g fill="#808080">
 <text style="stroke:none" transform="scale(1,-1) translate(0.0,0)" text-anchor="middle"  font-size="10"> 
<g fill="#808080">
 <g stroke="none"> </g> </g>
 </text> 
</g>
 </g>
 </g>
 </g>
 </g>
 <g stroke="#000">
 <g fill="#000">
 <g stroke="#000">
 <g fill="#000">
 <path d=" M 97.73819 34.30222 C 97.73819 34.8545 97.29048 35.30222 96.73819 35.30222 C 96.1859 35.30222 95.73819 34.8545 95.73819 34.30222 C 95.73819 33.74992 96.1859 33.30222 96.73819 33.30222 C 97.29048 33.30222 97.73819 33.74992 97.73819 34.30222 Z M 96.73819 34.30222  " />
 </g>
 </g>
 <g transform="translate(96.73819,34.30222)">
 <g fill="#000">
 <text style="stroke:none" transform="scale(1,-1) translate(0.0,0)" text-anchor="middle"  font-size="10"> 
<g fill="#000">
 <g stroke="none"> </g> </g>
 </text> 
</g>
 </g>
 </g>
 </g>
 <g stroke="#000" fill="#000">
 <g stroke="#000" fill="#000">
 </g>
 <g transform="translate(100.27116,23.93593)">
 <g fill="#000">
 <text style="stroke:none" transform="scale(1,-1) translate(3.61632,0)" text-anchor="middle"  font-size="10"> 
<g fill="#000">
 <g stroke="none"> <tspan font-family="\cmmi" font-size="\10">T</tspan> </g> </g>
 </text> 
</g>
 </g>
 </g>
 <g stroke-width="0.2">
 <g stroke="#000" fill="#000">
 <g stroke-dasharray="none" stroke-dashoffset="0.0">
 <g stroke-linecap="round">
 <g stroke-dasharray="3.0,3.0" stroke-dashoffset="0.0">
 <g stroke="#00f" fill="#00f">
 <path d=" M 34.95464 52.43195 M 29.3425 62.91817 L 68.6279 -10.48622  " fill="none"/>
 </g>
 </g>
 </g>
 </g>
 </g>
 </g>
 </g>
 </g>
 
                                </g> 
</svg> 
