<?xml version="1.0" encoding="iso-8859-1" standalone="no"?> 
<?xml-stylesheet href="doc.css" type="text/css"?> 
<svg xmlns="http://www.w3.org/2000/svg" xmlns:xlink="http://www.w3.org/1999/xlink" width="157.32866pt" height="140.89682pt" viewBox="-14.36595 -41.1252 157.32866 140.89682 "> 
<g transform="translate(0, 99.77162 ) scale(1,-1) translate(0,41.1252 )"> 
        <g stroke="#000" fill="#000">
 <g stroke-width="0.4">
 <g stroke="#000">
 <g fill="#000">
 <g stroke="#000">
 <g fill="#000">
 <path d=" M 1.0 0.0 C 1.0 0.55229 0.55229 1.0 0.0 1.0 C -0.55229 1.0 -1.0 0.55229 -1.0 0.0 C -1.0 -0.55229 -0.55229 -1.0 0.0 -1.0 C 0.55229 -1.0 1.0 -0.55229 1.0 0.0 Z M 0.0 0.0  " />
 </g>
 </g>
 <g fill="#000">
 <text style="stroke:none" transform="scale(1,-1) translate(0.0,0)" text-anchor="middle"  font-size="10"> 
<g fill="#000">
 <g stroke="none"> </g> </g>
 </text> 
</g>
 </g>
 </g>
 <g stroke="#000">
 <g fill="#000">
 <g stroke="#000">
 <g fill="#000">
 <path d=" M 129.00996 0.0 C 129.00996 0.55229 128.56226 1.0 128.00996 1.0 C 127.45767 1.0 127.00996 0.55229 127.00996 0.0 C 127.00996 -0.55229 127.45767 -1.0 128.00996 -1.0 C 128.56226 -1.0 129.00996 -0.55229 129.00996 0.0 Z M 128.00996 0.0  " />
 </g>
 </g>
 <g transform="translate(128.00996,0.0)">
 <g fill="#000">
 <text style="stroke:none" transform="scale(1,-1) translate(0.0,0)" text-anchor="middle"  font-size="10"> 
<g fill="#000">
 <g stroke="none"> </g> </g>
 </text> 
</g>
 </g>
 </g>
 </g>
 <g stroke="#000">
 <g fill="#000">
 <g stroke="#000">
 <g fill="#000">
 <path d=" M 107.67496 85.33997 C 107.67496 85.89226 107.22725 86.33997 106.67496 86.33997 C 106.12267 86.33997 105.67496 85.89226 105.67496 85.33997 C 105.67496 84.78767 106.12267 84.33997 106.67496 84.33997 C 107.22725 84.33997 107.67496 84.78767 107.67496 85.33997 Z M 106.67496 85.33997  " />
 </g>
 </g>
 <g transform="translate(106.67496,85.33997)">
 <g fill="#000">
 <text style="stroke:none" transform="scale(1,-1) translate(0.0,0)" text-anchor="middle"  font-size="10"> 
<g fill="#000">
 <g stroke="none"> </g> </g>
 </text> 
</g>
 </g>
 </g>
 </g>
 <g stroke="#000" fill="#000">
 <g stroke="#000" fill="#000">
 </g>
 <g transform="translate(-11.03297,-10.36629)">
 <g fill="#000">
 <text style="stroke:none" transform="scale(1,-1) translate(3.75,0)" text-anchor="middle"  font-size="10"> 
<g fill="#000">
 <g stroke="none"> <tspan font-family="\cmmi" font-size="\10">A</tspan></g> </g>
 </text> 
</g>
 </g>
 </g>
 <g stroke="#000" fill="#000">
 <g stroke="#000" fill="#000">
 </g>
 <g transform="translate(131.54294,-10.36629)">
 <g fill="#000">
 <text style="stroke:none" transform="scale(1,-1) translate(4.0434,0)" text-anchor="middle"  font-size="10"> 
<g fill="#000">
 <g stroke="none"> <tspan font-family="\cmmi" font-size="\10">B</tspan></g> </g>
 </text> 
</g>
 </g>
 </g>
 <g stroke="#000" fill="#000">
 <g stroke="#000" fill="#000">
 </g>
 <g transform="translate(110.20793,88.87294)">
 <g fill="#000">
 <text style="stroke:none" transform="scale(1,-1) translate(3.93124,0)" text-anchor="middle"  font-size="10"> 
<g fill="#000">
 <g stroke="none"> <tspan font-family="\cmmi" font-size="\10">C</tspan> </g> </g>
 </text> 
</g>
 </g>
 </g>
 <g stroke="#808080" fill="#808080">
 <g stroke-width="0.2">
 <g stroke-dasharray="none" stroke-dashoffset="0.0">
 <g stroke="#808080" fill="#808080">
 <g stroke-width="0.2">
 <g stroke-dasharray="none" stroke-dashoffset="0.0">
 <path d=" M 134.32603 29.32321 C 134.32603 68.17607 102.83047 99.67163 63.97762 99.67163 C 25.12476 99.67163 -6.3708 68.17607 -6.3708 29.32321 C -6.3708 -9.52965 25.12476 -41.0252 63.97762 -41.0252 C 102.83047 -41.0252 134.32603 -9.52965 134.32603 29.32321 Z M 63.97762 29.32321  " fill="none"/>
 </g>
 </g>
 </g>
 <g transform="translate(63.97762,29.32321)">
 <g fill="#808080">
 <text style="stroke:none" transform="scale(1,-1) translate(0.0,0)" text-anchor="middle"  font-size="10"> 
<g fill="#808080">
 <g stroke="none"> </g> </g>
 </text> 
</g>
 </g>
 </g>
 </g>
 </g>
 <g stroke-width="0.2">
 <g stroke="#000" fill="#000">
 <g stroke-dasharray="none" stroke-dashoffset="0.0">
 <g stroke-linecap="round">
 <path d=" M 0.0 0.0 M 0.0 0.0 L 106.67496 85.33997  " fill="none"/>
 </g>
 </g>
 </g>
 </g>
 <g stroke-width="0.2">
 <g stroke="#000" fill="#000">
 <g stroke-dasharray="none" stroke-dashoffset="0.0">
 <g stroke-linecap="round">
 <path d=" M 128.00996 0.0 M 128.00996 0.0 L 106.67496 85.33997  " fill="none"/>
 </g>
 </g>
 </g>
 </g>
 <g stroke-width="0.2">
 <g stroke="#000" fill="#000">
 <g stroke-dasharray="none" stroke-dashoffset="0.0">
 <g stroke-linecap="round">
 <path d=" M 0.0 0.0 M 0.0 0.0 L 128.00996 0.0  " fill="none"/>
 </g>
 </g>
 </g>
 </g>
 <g stroke="#000">
 <g fill="#000">
 <g stroke="#000">
 <g fill="#000">
 <path d=" M 52.19223 0.0 C 52.19223 0.55229 51.74452 1.0 51.19223 1.0 C 50.63994 1.0 50.19223 0.55229 50.19223 0.0 C 50.19223 -0.55229 50.63994 -1.0 51.19223 -1.0 C 51.74452 -1.0 52.19223 -0.55229 52.19223 0.0 Z M 51.19223 0.0  " />
 </g>
 </g>
 <g transform="translate(51.19223,0.0)">
 <g fill="#000">
 <text style="stroke:none" transform="scale(1,-1) translate(0.0,0)" text-anchor="middle"  font-size="10"> 
<g fill="#000">
 <g stroke="none"> </g> </g>
 </text> 
</g>
 </g>
 </g>
 </g>
 <g stroke="#000" fill="#000">
 <g stroke="#000" fill="#000">
 </g>
 <g transform="translate(54.7252,-10.36629)">
 <g fill="#000">
 <text style="stroke:none" transform="scale(1,-1) translate(4.53471,0)" text-anchor="middle"  font-size="10"> 
<g fill="#000">
 <g stroke="none"> <tspan font-family="\cmmi" font-size="\10">X</tspan></g> </g>
 </text> 
</g>
 </g>
 </g>
 <g stroke-width="0.2">
 <g stroke="#000" fill="#000">
 <g stroke-dasharray="none" stroke-dashoffset="0.0">
 <g stroke-linecap="round">
 <path d=" M 106.67496 85.33997 M 106.67496 85.33997 L 51.19223 0.0  " fill="none"/>
 </g>
 </g>
 </g>
 </g>
 <g stroke="#000">
 <g fill="#000">
 <g stroke="#000">
 <g fill="#000">
 <path d=" M 89.29199 30.97308 C 89.29199 31.52538 88.84428 31.97308 88.29199 31.97308 C 87.7397 31.97308 87.29199 31.52538 87.29199 30.97308 C 87.29199 30.42079 87.7397 29.97308 88.29199 29.97308 C 88.84428 29.97308 89.29199 30.42079 89.29199 30.97308 Z M 88.29199 30.97308  " />
 </g>
 </g>
 <g transform="translate(88.29199,30.97308)">
 <g fill="#000">
 <text style="stroke:none" transform="scale(1,-1) translate(0.0,0)" text-anchor="middle"  font-size="10"> 
<g fill="#000">
 <g stroke="none"> </g> </g>
 </text> 
</g>
 </g>
 </g>
 </g>
 <g stroke="#000" fill="#000">
 <g stroke="#000" fill="#000">
 </g>
 <g transform="translate(91.82497,34.50606)">
 <g fill="#000">
 <text style="stroke:none" transform="scale(1,-1) translate(2.59027,0)" text-anchor="middle"  font-size="10"> 
<g fill="#000">
 <g stroke="none"> <tspan font-family="\cmmi" font-size="\10">I</tspan> </g> </g>
 </text> 
</g>
 </g>
 </g>
 <g stroke="#808080" fill="#808080">
 <g stroke-width="0.2">
 <g stroke-dasharray="none" stroke-dashoffset="0.0">
 <g stroke="#808080" fill="#808080">
 <g stroke-width="0.2">
 <g stroke-dasharray="none" stroke-dashoffset="0.0">
 <path d=" M 119.2447 30.97308 C 119.2447 48.06801 105.38692 61.9258 88.29199 61.9258 C 71.19707 61.9258 57.33928 48.06801 57.33928 30.97308 C 57.33928 13.87816 71.19707 0.02037 88.29199 0.02037 C 105.38692 0.02037 119.2447 13.87816 119.2447 30.97308 Z M 88.29199 30.97308  " fill="none"/>
 </g>
 </g>
 </g>
 <g transform="translate(88.29199,30.97308)">
 <g fill="#808080">
 <text style="stroke:none" transform="scale(1,-1) translate(0.0,0)" text-anchor="middle"  font-size="10"> 
<g fill="#808080">
 <g stroke="none"> </g> </g>
 </text> 
</g>
 </g>
 </g>
 </g>
 </g>
 <g stroke="#000">
 <g fill="#000">
 <g stroke="#000">
 <g fill="#000">
 <path d=" M 106.09215 0.0 C 106.09215 0.55229 105.64444 1.0 105.09215 1.0 C 104.53986 1.0 104.09215 0.55229 104.09215 0.0 C 104.09215 -0.55229 104.53986 -1.0 105.09215 -1.0 C 105.64444 -1.0 106.09215 -0.55229 106.09215 0.0 Z M 105.09215 0.0  " />
 </g>
 </g>
 <g transform="translate(105.09215,0.0)">
 <g fill="#000">
 <text style="stroke:none" transform="scale(1,-1) translate(0.0,0)" text-anchor="middle"  font-size="10"> 
<g fill="#000">
 <g stroke="none"> </g> </g>
 </text> 
</g>
 </g>
 </g>
 </g>
 <g stroke="#000">
 <g fill="#000">
 <g stroke="#000">
 <g fill="#000">
 <path d=" M 81.55377 45.17923 C 81.55377 45.73152 81.10606 46.17923 80.55377 46.17923 C 80.00148 46.17923 79.55377 45.73152 79.55377 45.17923 C 79.55377 44.62694 80.00148 44.17923 80.55377 44.17923 C 81.10606 44.17923 81.55377 44.62694 81.55377 45.17923 Z M 80.55377 45.17923  " />
 </g>
 </g>
 <g transform="translate(80.55377,45.17923)">
 <g fill="#000">
 <text style="stroke:none" transform="scale(1,-1) translate(0.0,0)" text-anchor="middle"  font-size="10"> 
<g fill="#000">
 <g stroke="none"> </g> </g>
 </text> 
</g>
 </g>
 </g>
 </g>
 <g stroke="#000" fill="#000">
 <g stroke="#000" fill="#000">
 </g>
 <g transform="translate(108.62512,-10.36629)">
 <g fill="#000">
 <text style="stroke:none" transform="scale(1,-1) translate(4.60416,0)" text-anchor="middle"  font-size="10"> 
<g fill="#000">
 <g stroke="none"> <tspan font-family="\cmmi" font-size="\10">K</tspan></g> </g>
 </text> 
</g>
 </g>
 </g>
 <g stroke="#000" fill="#000">
 <g stroke="#000" fill="#000">
 </g>
 <g transform="translate(70.21523,48.7122)">
 <g fill="#000">
 <text style="stroke:none" transform="scale(1,-1) translate(3.40279,0)" text-anchor="middle"  font-size="10"> 
<g fill="#000">
 <g stroke="none"> <tspan font-family="\cmmi" font-size="\10">L</tspan> </g> </g>
 </text> 
</g>
 </g>
 </g>
 <g stroke="#808080" fill="#808080">
 <g stroke-width="0.2">
 <g stroke-dasharray="none" stroke-dashoffset="0.0">
 <g stroke="#808080" fill="#808080">
 <g stroke-width="0.2">
 <g stroke-dasharray="none" stroke-dashoffset="0.0">
 <path d=" M 134.29533 29.2301 C 134.29533 45.37389 121.20857 58.46065 105.06479 58.46065 C 88.921 58.46065 75.83424 45.37389 75.83424 29.2301 C 75.83424 13.08632 88.921 -0.00044 105.06479 -0.00044 C 121.20857 -0.00044 134.29533 13.08632 134.29533 29.2301 Z M 105.06479 29.2301  " fill="none"/>
 </g>
 </g>
 </g>
 <g transform="translate(105.06479,29.2301)">
 <g fill="#808080">
 <text style="stroke:none" transform="scale(1,-1) translate(0.0,0)" text-anchor="middle"  font-size="10"> 
<g fill="#808080">
 <g stroke="none"> </g> </g>
 </text> 
</g>
 </g>
 </g>
 </g>
 </g>
 <g stroke="#000">
 <g fill="#000">
 <g stroke="#000">
 <g fill="#000">
 <path d=" M 106.06479 29.2301 C 106.06479 29.7824 105.61708 30.2301 105.06479 30.2301 C 104.5125 30.2301 104.06479 29.7824 104.06479 29.2301 C 104.06479 28.67781 104.5125 28.2301 105.06479 28.2301 C 105.61708 28.2301 106.06479 28.67781 106.06479 29.2301 Z M 105.06479 29.2301  " />
 </g>
 </g>
 <g transform="translate(105.06479,29.2301)">
 <g fill="#000">
 <text style="stroke:none" transform="scale(1,-1) translate(0.0,0)" text-anchor="middle"  font-size="10"> 
<g fill="#000">
 <g stroke="none"> </g> </g>
 </text> 
</g>
 </g>
 </g>
 </g>
 <g stroke="#000" fill="#000">
 <g stroke="#000" fill="#000">
 </g>
 <g transform="translate(98.86896,18.86382)">
 <g fill="#000">
 <text style="stroke:none" transform="scale(1,-1) translate(6.19583,0)" text-anchor="middle"  font-size="10"> 
<g fill="#000">
 <g stroke="none"> <tspan font-family="\cmmi" font-size="\10">O</tspan><tspan baseline-shift="sub"><tspan font-family="\cmr" font-size="\7">1</tspan></tspan></g> </g>
 </text> 
</g>
 </g>
 </g>
 <g stroke="#000">
 <g fill="#000">
 <g stroke="#000">
 <g fill="#000">
 <path d=" M 32.22246 0.0 C 32.22246 0.55229 31.77475 1.0 31.22246 1.0 C 30.67017 1.0 30.22246 0.55229 30.22246 0.0 C 30.22246 -0.55229 30.67017 -1.0 31.22246 -1.0 C 31.77475 -1.0 32.22246 -0.55229 32.22246 0.0 Z M 31.22246 0.0  " />
 </g>
 </g>
 <g transform="translate(31.22246,0.0)">
 <g fill="#000">
 <text style="stroke:none" transform="scale(1,-1) translate(0.0,0)" text-anchor="middle"  font-size="10"> 
<g fill="#000">
 <g stroke="none"> </g> </g>
 </text> 
</g>
 </g>
 </g>
 </g>
 <g stroke="#000">
 <g fill="#000">
 <g stroke="#000">
 <g fill="#000">
 <path d=" M 63.06534 16.74083 C 63.06534 17.29312 62.61763 17.74083 62.06534 17.74083 C 61.51305 17.74083 61.06534 17.29312 61.06534 16.74083 C 61.06534 16.18854 61.51305 15.74083 62.06534 15.74083 C 62.61763 15.74083 63.06534 16.18854 63.06534 16.74083 Z M 62.06534 16.74083  " />
 </g>
 </g>
 <g transform="translate(62.06534,16.74083)">
 <g fill="#000">
 <text style="stroke:none" transform="scale(1,-1) translate(0.0,0)" text-anchor="middle"  font-size="10"> 
<g fill="#000">
 <g stroke="none"> </g> </g>
 </text> 
</g>
 </g>
 </g>
 </g>
 <g stroke="#000" fill="#000">
 <g stroke="#000" fill="#000">
 </g>
 <g transform="translate(34.75543,-10.36629)">
 <g fill="#000">
 <text style="stroke:none" transform="scale(1,-1) translate(5.39583,0)" text-anchor="middle"  font-size="10"> 
<g fill="#000">
 <g stroke="none"> <tspan font-family="\cmmi" font-size="\10">M</tspan> </g> </g>
 </text> 
</g>
 </g>
 </g>
 <g stroke="#000" fill="#000">
 <g stroke="#000" fill="#000">
 </g>
 <g transform="translate(49.4074,20.2738)">
 <g fill="#000">
 <text style="stroke:none" transform="scale(1,-1) translate(4.56248,0)" text-anchor="middle"  font-size="10"> 
<g fill="#000">
 <g stroke="none"> <tspan font-family="\cmmi" font-size="\10">N</tspan> </g> </g>
 </text> 
</g>
 </g>
 </g>
 <g stroke="#808080" fill="#808080">
 <g stroke-width="0.2">
 <g stroke-dasharray="none" stroke-dashoffset="0.0">
 <g stroke="#808080" fill="#808080">
 <g stroke-width="0.2">
 <g stroke-dasharray="none" stroke-dashoffset="0.0">
 <path d=" M 67.99535 36.7808 C 67.99535 57.09485 51.52803 73.56216 31.21399 73.56216 C 10.89995 73.56216 -5.56737 57.09485 -5.56737 36.7808 C -5.56737 16.46677 10.89995 -0.00055 31.21399 -0.00055 C 51.52803 -0.00055 67.99535 16.46677 67.99535 36.7808 Z M 31.21399 36.7808  " fill="none"/>
 </g>
 </g>
 </g>
 <g transform="translate(31.21399,36.7808)">
 <g fill="#808080">
 <text style="stroke:none" transform="scale(1,-1) translate(0.0,0)" text-anchor="middle"  font-size="10"> 
<g fill="#808080">
 <g stroke="none"> </g> </g>
 </text> 
</g>
 </g>
 </g>
 </g>
 </g>
 <g stroke="#000">
 <g fill="#000">
 <g stroke="#000">
 <g fill="#000">
 <path d=" M 32.21399 36.7808 C 32.21399 37.3331 31.76628 37.7808 31.21399 37.7808 C 30.6617 37.7808 30.21399 37.3331 30.21399 36.7808 C 30.21399 36.22852 30.6617 35.7808 31.21399 35.7808 C 31.76628 35.7808 32.21399 36.22852 32.21399 36.7808 Z M 31.21399 36.7808  " />
 </g>
 </g>
 <g transform="translate(31.21399,36.7808)">
 <g fill="#000">
 <text style="stroke:none" transform="scale(1,-1) translate(0.0,0)" text-anchor="middle"  font-size="10"> 
<g fill="#000">
 <g stroke="none"> </g> </g>
 </text> 
</g>
 </g>
 </g>
 </g>
 <g stroke="#000" fill="#000">
 <g stroke="#000" fill="#000">
 </g>
 <g transform="translate(25.01816,26.41452)">
 <g fill="#000">
 <text style="stroke:none" transform="scale(1,-1) translate(6.19583,0)" text-anchor="middle"  font-size="10"> 
<g fill="#000">
 <g stroke="none"> <tspan font-family="\cmmi" font-size="\10">O</tspan><tspan baseline-shift="sub"><tspan font-family="\cmr" font-size="\7">2</tspan></tspan></g> </g>
 </text> 
</g>
 </g>
 </g>
 <g stroke-width="0.2">
 <g stroke="#000" fill="#000">
 <g stroke-dasharray="none" stroke-dashoffset="0.0">
 <g stroke-linecap="round">
 <g stroke-dasharray="3.0,3.0" stroke-dashoffset="0.0">
 <g stroke="#00f" fill="#00f">
 <path d=" M 105.06479 29.2301 M 119.83475 27.71999 L 16.44403 38.29092  " fill="none"/>
 </g>
 </g>
 </g>
 </g>
 </g>
 </g>
 <g stroke-width="0.2">
 <g stroke="#000" fill="#000">
 <g stroke-dasharray="none" stroke-dashoffset="0.0">
 <g stroke-linecap="round">
 <g stroke-dasharray="3.0,3.0" stroke-dashoffset="0.0">
 <g stroke="#00f" fill="#00f">
 <path d=" M 80.55377 45.17923 M 75.64615 54.21494 L 109.99976 -9.0357  " fill="none"/>
 </g>
 </g>
 </g>
 </g>
 </g>
 </g>
 <g stroke-width="0.2">
 <g stroke="#000" fill="#000">
 <g stroke-dasharray="none" stroke-dashoffset="0.0">
 <g stroke-linecap="round">
 <g stroke-dasharray="3.0,3.0" stroke-dashoffset="0.0">
 <g stroke="#00f" fill="#00f">
 <path d=" M 31.22246 0.0 M 19.80872 -6.1945 L 99.70573 37.16759  " fill="none"/>
 </g>
 </g>
 </g>
 </g>
 </g>
 </g>
 </g>
 </g>
 
                                                          </g> 
</svg> 
