<?xml version="1.0" encoding="iso-8859-1" standalone="no"?> 
<?xml-stylesheet href="doc.css" type="text/css"?> 
<svg xmlns="http://www.w3.org/2000/svg" xmlns:xlink="http://www.w3.org/1999/xlink" width="354.95021pt" height="125.20865pt" viewBox="-192.85327 -62.94589 354.95021 125.20865 "> 
<g transform="translate(0, 62.26276 ) scale(1,-1) translate(0,62.94589 )"> 
                                                              <g stroke="#000" fill="#000">
 <g stroke-width="0.4">
 <g stroke="#808080" fill="#808080">
 <g stroke-width="0.2">
 <g stroke-dasharray="none" stroke-dashoffset="0.0">
 <g stroke="#808080" fill="#808080">
 <g stroke-width="0.2">
 <g stroke-dasharray="none" stroke-dashoffset="0.0">
 <path d=" M 44.98186 0.0 C 44.98186 24.84311 24.84311 44.98186 0.0 44.98186 C -24.84311 44.98186 -44.98186 24.84311 -44.98186 0.0 C -44.98186 -24.84311 -24.84311 -44.98186 0.0 -44.98186 C 24.84311 -44.98186 44.98186 -24.84311 44.98186 0.0 Z M 0.0 0.0  " fill="none"/>
 </g>
 </g>
 </g>
 <g fill="#808080">
 <text style="stroke:none" transform="scale(1,-1) translate(0.0,0)" text-anchor="middle"  font-size="10"> 
<g fill="#808080">
 <g stroke="none"> </g> </g>
 </text> 
</g>
 </g>
 </g>
 </g>
 <g stroke="#000">
 <g fill="#000">
 <g stroke="#000">
 <g fill="#000">
 <path d=" M 43.67911 14.22636 C 43.67911 14.77866 43.2314 15.22636 42.67911 15.22636 C 42.12682 15.22636 41.67911 14.77866 41.67911 14.22636 C 41.67911 13.67407 42.12682 13.22636 42.67911 13.22636 C 43.2314 13.22636 43.67911 13.67407 43.67911 14.22636 Z M 42.67911 14.22636  " />
 </g>
 </g>
 <g transform="translate(42.67911,14.22636)">
 <g fill="#000">
 <text style="stroke:none" transform="scale(1,-1) translate(0.0,0)" text-anchor="middle"  font-size="10"> 
<g fill="#000">
 <g stroke="none"> </g> </g>
 </text> 
</g>
 </g>
 </g>
 </g>
 <g stroke="#000">
 <g fill="#000">
 <g stroke="#000">
 <g fill="#000">
 <path d=" M -41.67911 14.22636 C -41.67911 14.77866 -42.12682 15.22636 -42.67911 15.22636 C -43.2314 15.22636 -43.67911 14.77866 -43.67911 14.22636 C -43.67911 13.67407 -43.2314 13.22636 -42.67911 13.22636 C -42.12682 13.22636 -41.67911 13.67407 -41.67911 14.22636 Z M -42.67911 14.22636  " />
 </g>
 </g>
 <g transform="translate(-42.67911,14.22636)">
 <g fill="#000">
 <text style="stroke:none" transform="scale(1,-1) translate(0.0,0)" text-anchor="middle"  font-size="10"> 
<g fill="#000">
 <g stroke="none"> </g> </g>
 </text> 
</g>
 </g>
 </g>
 </g>
 <g stroke="#000" fill="#000">
 <g stroke="#000" fill="#000">
 </g>
 <g transform="translate(46.21208,17.75934)">
 <g fill="#000">
 <text style="stroke:none" transform="scale(1,-1) translate(4.0434,0)" text-anchor="middle"  font-size="10"> 
<g fill="#000">
 <g stroke="none"> <tspan font-family="\cmmi" font-size="\10">B</tspan></g> </g>
 </text> 
</g>
 </g>
 </g>
 <g stroke="#000" fill="#000">
 <g stroke="#000" fill="#000">
 </g>
 <g transform="translate(-54.07457,17.75934)">
 <g fill="#000">
 <text style="stroke:none" transform="scale(1,-1) translate(3.93124,0)" text-anchor="middle"  font-size="10"> 
<g fill="#000">
 <g stroke="none"> <tspan font-family="\cmmi" font-size="\10">C</tspan> </g> </g>
 </text> 
</g>
 </g>
 </g>
 <g stroke-width="0.2">
 <g stroke="#000" fill="#000">
 <g stroke-dasharray="none" stroke-dashoffset="0.0">
 <g stroke-linecap="round">
 <path d=" M 42.67911 14.22636 M 59.75049 14.22636 L -59.75049 14.22636  " fill="none"/>
 </g>
 </g>
 </g>
 </g>
 <g stroke="#000">
 <g fill="#000">
 <g stroke="#000">
 <g fill="#000">
 <path d=" M 1.0 -44.98772 C 1.0 -44.43542 0.55229 -43.98772 0.0 -43.98772 C -0.55229 -43.98772 -1.0 -44.43542 -1.0 -44.98772 C -1.0 -45.54001 -0.55229 -45.98772 0.0 -45.98772 C 0.55229 -45.98772 1.0 -45.54001 1.0 -44.98772 Z M 0.0 -44.98772  " />
 </g>
 </g>
 <g transform="translate(0.0,-44.98772)">
 <g fill="#000">
 <text style="stroke:none" transform="scale(1,-1) translate(0.0,0)" text-anchor="middle"  font-size="10"> 
<g fill="#000">
 <g stroke="none"> </g> </g>
 </text> 
</g>
 </g>
 </g>
 </g>
 <g stroke="#000" fill="#000">
 <g stroke="#000" fill="#000">
 </g>
 <g transform="translate(3.53297,-55.354)">
 <g fill="#000">
 <text style="stroke:none" transform="scale(1,-1) translate(5.39583,0)" text-anchor="middle"  font-size="10"> 
<g fill="#000">
 <g stroke="none"> <tspan font-family="\cmmi" font-size="\10">M</tspan></g> </g>
 </text> 
</g>
 </g>
 </g>
 <g stroke="#000">
 <g fill="#000">
 <g stroke="#000">
 <g fill="#000">
 <path d=" M 8.81174 44.30458 C 8.81174 44.85687 8.36403 45.30458 7.81174 45.30458 C 7.25945 45.30458 6.81174 44.85687 6.81174 44.30458 C 6.81174 43.75229 7.25945 43.30458 7.81174 43.30458 C 8.36403 43.30458 8.81174 43.75229 8.81174 44.30458 Z M 7.81174 44.30458  " />
 </g>
 </g>
 <g transform="translate(7.81174,44.30458)">
 <g fill="#000">
 <text style="stroke:none" transform="scale(1,-1) translate(0.0,0)" text-anchor="middle"  font-size="10"> 
<g fill="#000">
 <g stroke="none"> </g> </g>
 </text> 
</g>
 </g>
 </g>
 </g>
 <g stroke="#000" fill="#000">
 <g stroke="#000" fill="#000">
 </g>
 <g transform="translate(11.34471,47.83755)">
 <g fill="#000">
 <text style="stroke:none" transform="scale(1,-1) translate(3.97916,0)" text-anchor="middle"  font-size="10"> 
<g fill="#000">
 <g stroke="none"> <tspan font-family="\cmmi" font-size="\10">E</tspan> </g> </g>
 </text> 
</g>
 </g>
 </g>
 <g stroke="#000">
 <g fill="#000">
 <g stroke="#000">
 <g fill="#000">
 <path d=" M 6.18033 14.22636 C 6.18033 14.77866 5.73262 15.22636 5.18033 15.22636 C 4.62804 15.22636 4.18033 14.77866 4.18033 14.22636 C 4.18033 13.67407 4.62804 13.22636 5.18033 13.22636 C 5.73262 13.22636 6.18033 13.67407 6.18033 14.22636 Z M 5.18033 14.22636  " />
 </g>
 </g>
 <g transform="translate(5.18033,14.22636)">
 <g fill="#000">
 <text style="stroke:none" transform="scale(1,-1) translate(0.0,0)" text-anchor="middle"  font-size="10"> 
<g fill="#000">
 <g stroke="none"> </g> </g>
 </text> 
</g>
 </g>
 </g>
 </g>
 <g stroke="#000" fill="#000">
 <g stroke="#000" fill="#000">
 </g>
 <g transform="translate(8.7133,3.86008)">
 <g fill="#000">
 <text style="stroke:none" transform="scale(1,-1) translate(4.27847,0)" text-anchor="middle"  font-size="10"> 
<g fill="#000">
 <g stroke="none"> <tspan font-family="\cmmi" font-size="\10">D</tspan> </g> </g>
 </text> 
</g>
 </g>
 </g>
 <g stroke="#808080" fill="#808080">
 <g stroke-width="0.2">
 <g stroke-dasharray="none" stroke-dashoffset="0.0">
 <g stroke="#808080" fill="#808080">
 <g stroke-width="0.2">
 <g stroke-dasharray="none" stroke-dashoffset="0.0">
 <path d=" M 20.33438 29.38052 C 20.33438 37.74997 13.54977 44.53458 5.18033 44.53458 C -3.18912 44.53458 -9.97372 37.74997 -9.97372 29.38052 C -9.97372 21.01108 -3.18912 14.22647 5.18033 14.22647 C 13.54977 14.22647 20.33438 21.01108 20.33438 29.38052 Z M 5.18033 29.38052  " fill="none"/>
 </g>
 </g>
 </g>
 <g transform="translate(5.18033,29.38052)">
 <g fill="#808080">
 <text style="stroke:none" transform="scale(1,-1) translate(0.0,0)" text-anchor="middle"  font-size="10"> 
<g fill="#808080">
 <g stroke="none"> </g> </g>
 </text> 
</g>
 </g>
 </g>
 </g>
 </g>
 <g stroke-width="0.2">
 <g stroke="#000" fill="#000">
 <g stroke-dasharray="none" stroke-dashoffset="0.0">
 <g stroke-linecap="round">
 <g stroke-dasharray="3.0,3.0" stroke-dashoffset="0.0">
 <g stroke="#00f" fill="#00f">
 <path d=" M 7.81174 44.30458 M 9.37405 62.16277 L -1.56232 -62.8459  " fill="none"/>
 </g>
 </g>
 </g>
 </g>
 </g>
 </g>
 <g stroke="#000">
 <g fill="#000">
 <g stroke="#000">
 <g fill="#000">
 <path d=" M -141.07524 -44.98553 C -141.07524 -44.43324 -141.52295 -43.98553 -142.07524 -43.98553 C -142.62753 -43.98553 -143.07524 -44.43324 -143.07524 -44.98553 C -143.07524 -45.53783 -142.62753 -45.98553 -142.07524 -45.98553 C -141.52295 -45.98553 -141.07524 -45.53783 -141.07524 -44.98553 Z M -142.07524 -44.98553  " />
 </g>
 </g>
 <g transform="translate(-142.07524,-44.98553)">
 <g fill="#000">
 <text style="stroke:none" transform="scale(1,-1) translate(0.0,0)" text-anchor="middle"  font-size="10"> 
<g fill="#000">
 <g stroke="none"> </g> </g>
 </text> 
</g>
 </g>
 </g>
 </g>
 <g stroke="#000" fill="#000">
 <g stroke="#000" fill="#000">
 </g>
 <g transform="translate(-156.22067,-41.45256)">
 <g fill="#000">
 <text style="stroke:none" transform="scale(1,-1) translate(5.30623,0)" text-anchor="middle"  font-size="10"> 
<g fill="#000">
 <g stroke="none"> <tspan font-family="\cmmi" font-size="\10">C</tspan><tspan font-family="\cmsy" font-size="\10">&#x2032;</tspan> </g> </g>
 </text> 
</g>
 </g>
 </g>
 <g stroke="#000">
 <g fill="#000">
 <g stroke="#000">
 <g fill="#000">
 <path d=" M 112.31891 -44.98553 C 112.31891 -44.43324 111.8712 -43.98553 111.31891 -43.98553 C 110.76662 -43.98553 110.31891 -44.43324 110.31891 -44.98553 C 110.31891 -45.53783 110.76662 -45.98553 111.31891 -45.98553 C 111.8712 -45.98553 112.31891 -45.53783 112.31891 -44.98553 Z M 111.31891 -44.98553  " />
 </g>
 </g>
 <g transform="translate(111.31891,-44.98553)">
 <g fill="#000">
 <text style="stroke:none" transform="scale(1,-1) translate(0.0,0)" text-anchor="middle"  font-size="10"> 
<g fill="#000">
 <g stroke="none"> </g> </g>
 </text> 
</g>
 </g>
 </g>
 </g>
 <g stroke="#000" fill="#000">
 <g stroke="#000" fill="#000">
 </g>
 <g transform="translate(114.85188,-41.45256)">
 <g fill="#000">
 <text style="stroke:none" transform="scale(1,-1) translate(5.4184,0)" text-anchor="middle"  font-size="10"> 
<g fill="#000">
 <g stroke="none"> <tspan font-family="\cmmi" font-size="\10">B</tspan><tspan font-family="\cmsy" font-size="\10">&#x2032;</tspan></g> </g>
 </text> 
</g>
 </g>
 </g>
 <g stroke-width="0.2">
 <g stroke="#000" fill="#000">
 <g stroke-dasharray="none" stroke-dashoffset="0.0">
 <g stroke-linecap="round">
 <path d=" M 7.81174 44.30458 M 37.78867 62.16232 L -172.05217 -62.84328  " fill="none"/>
 </g>
 </g>
 </g>
 </g>
 <g stroke-width="0.2">
 <g stroke="#000" fill="#000">
 <g stroke-dasharray="none" stroke-dashoffset="0.0">
 <g stroke-linecap="round">
 <path d=" M 7.81174 44.30458 M -12.88937 62.16232 L 132.02002 -62.84328  " fill="none"/>
 </g>
 </g>
 </g>
 </g>
 <g stroke-width="0.2">
 <g stroke="#000" fill="#000">
 <g stroke-dasharray="none" stroke-dashoffset="0.0">
 <g stroke-linecap="round">
 <path d=" M -142.07524 -44.98553 M -192.75328 -44.98553 L 161.99695 -44.98553  " fill="none"/>
 </g>
 </g>
 </g>
 </g>
 <g stroke-width="0.2">
 <g stroke="#000" fill="#000">
 <g stroke-dasharray="none" stroke-dashoffset="0.0">
 <g stroke-linecap="round">
 <path d=" M -42.67911 14.22636 M -42.67911 14.22636 L 0.0 -44.98772  " fill="none"/>
 </g>
 </g>
 </g>
 </g>
 <g stroke-width="0.2">
 <g stroke="#000" fill="#000">
 <g stroke-dasharray="none" stroke-dashoffset="0.0">
 <g stroke-linecap="round">
 <path d=" M 42.67911 14.22636 M 42.67911 14.22636 L 0.0 -44.98772  " fill="none"/>
 </g>
 </g>
 </g>
 </g>
 <g stroke="#f00" fill="#f00">
 <path d=" M -8.31773 -33.44725 C -12.02649 -36.12033 -14.22614 -40.41565 -14.22614 -44.9875  " fill="none"/>
 </g>
 <g stroke="#000" fill="#000">
 </g>
 <g stroke="#f00" fill="#f00">
 <path d=" M -34.36137 2.6859 C -30.65262 5.35898 -28.45274 9.6543 -28.45274 14.22636  " fill="none"/>
 </g>
 <g stroke="#000" fill="#000">
 </g>
 <g stroke="#f00" fill="#f00">
 <path d=" M 28.45274 14.22636 C 28.45274 9.6543 30.65262 5.35898 34.36137 2.6859  " fill="none"/>
 </g>
 <g stroke="#000" fill="#000">
 </g>
 <g stroke="#f00" fill="#f00">
 <path d=" M 14.22615 -44.9875 C 14.22615 -40.41565 12.0265 -36.12033 8.31775 -33.44725  " fill="none"/>
 </g>
 <g stroke="#000" fill="#000">
 </g>
 <g stroke="#f00" fill="#f00">
 <path d=" M -4.4097 37.02382 C -2.06984 33.09625 2.01753 30.53104 6.57202 30.1327  " fill="none"/>
 </g>
 <g stroke="#000" fill="#000">
 </g>
 <g stroke="#f00" fill="#f00">
 <path d=" M 7.06804 35.80145 C 9.80075 35.56245 12.48322 36.65236 14.27489 38.72942  " fill="none"/>
 </g>
 <g stroke="#000" fill="#000">
 </g>
 </g>
 </g>
 
                                               </g> 
</svg> 
