<?xml version="1.0" encoding="iso-8859-1" standalone="no"?> 
<?xml-stylesheet href="doc.css" type="text/css"?> 
<svg xmlns="http://www.w3.org/2000/svg" xmlns:xlink="http://www.w3.org/1999/xlink" width="143.59323pt" height="141.21535pt" viewBox="-71.79662 -74.22356 143.59323 141.21535 "> 
<g transform="translate(0, 66.99179 ) scale(1,-1) translate(0,74.22356 )"> 
                        <g stroke="#000" fill="#000">
 <g stroke-width="0.4">
 <g stroke="#808080" fill="#808080">
 <g stroke-width="0.2">
 <g stroke-dasharray="none" stroke-dashoffset="0.0">
 <g stroke="#808080" fill="#808080">
 <g stroke-width="0.2">
 <g stroke-dasharray="none" stroke-dashoffset="0.0">
 <path d=" M 53.97446 0.0 C 53.97446 29.80965 29.80965 53.97446 0.0 53.97446 C -29.80965 53.97446 -53.97446 29.80965 -53.97446 0.0 C -53.97446 -29.80965 -29.80965 -53.97446 0.0 -53.97446 C 29.80965 -53.97446 53.97446 -29.80965 53.97446 0.0 Z M 0.0 0.0  " fill="none"/>
 </g>
 </g>
 </g>
 <g fill="#808080">
 <text style="stroke:none" transform="scale(1,-1) translate(0.0,0)" text-anchor="middle"  font-size="10"> 
<g fill="#808080">
 <g stroke="none"> </g> </g>
 </text> 
</g>
 </g>
 </g>
 </g>
 <g stroke="#000">
 <g fill="#000">
 <g stroke="#000">
 <g fill="#000">
 <path d=" M 52.2121 17.07066 C 52.2121 17.62296 51.76439 18.07066 51.2121 18.07066 C 50.6598 18.07066 50.2121 17.62296 50.2121 17.07066 C 50.2121 16.51837 50.6598 16.07066 51.2121 16.07066 C 51.76439 16.07066 52.2121 16.51837 52.2121 17.07066 Z M 51.2121 17.07066  " />
 </g>
 </g>
 <g transform="translate(51.2121,17.07066)">
 <g fill="#000">
 <text style="stroke:none" transform="scale(1,-1) translate(0.0,0)" text-anchor="middle"  font-size="10"> 
<g fill="#000">
 <g stroke="none"> </g> </g>
 </text> 
</g>
 </g>
 </g>
 </g>
 <g stroke="#000">
 <g fill="#000">
 <g stroke="#000">
 <g fill="#000">
 <path d=" M -50.2121 17.07066 C -50.2121 17.62296 -50.6598 18.07066 -51.2121 18.07066 C -51.76439 18.07066 -52.2121 17.62296 -52.2121 17.07066 C -52.2121 16.51837 -51.76439 16.07066 -51.2121 16.07066 C -50.6598 16.07066 -50.2121 16.51837 -50.2121 17.07066 Z M -51.2121 17.07066  " />
 </g>
 </g>
 <g transform="translate(-51.2121,17.07066)">
 <g fill="#000">
 <text style="stroke:none" transform="scale(1,-1) translate(0.0,0)" text-anchor="middle"  font-size="10"> 
<g fill="#000">
 <g stroke="none"> </g> </g>
 </text> 
</g>
 </g>
 </g>
 </g>
 <g stroke="#000" fill="#000">
 <g stroke="#000" fill="#000">
 </g>
 <g transform="translate(54.74507,20.60364)">
 <g fill="#000">
 <text style="stroke:none" transform="scale(1,-1) translate(4.0434,0)" text-anchor="middle"  font-size="10"> 
<g fill="#000">
 <g stroke="none"> <tspan font-family="\cmmi" font-size="\10">B</tspan></g> </g>
 </text> 
</g>
 </g>
 </g>
 <g stroke="#000" fill="#000">
 <g stroke="#000" fill="#000">
 </g>
 <g transform="translate(-62.60756,20.60364)">
 <g fill="#000">
 <text style="stroke:none" transform="scale(1,-1) translate(3.93124,0)" text-anchor="middle"  font-size="10"> 
<g fill="#000">
 <g stroke="none"> <tspan font-family="\cmmi" font-size="\10">C</tspan> </g> </g>
 </text> 
</g>
 </g>
 </g>
 <g stroke-width="0.2">
 <g stroke="#000" fill="#000">
 <g stroke-dasharray="none" stroke-dashoffset="0.0">
 <g stroke-linecap="round">
 <path d=" M 51.2121 17.07066 M 71.69662 17.07066 L -71.69662 17.07066  " fill="none"/>
 </g>
 </g>
 </g>
 </g>
 <g stroke="#000">
 <g fill="#000">
 <g stroke="#000">
 <g fill="#000">
 <path d=" M 1.0 -53.97874 C 1.0 -53.42645 0.55229 -52.97874 0.0 -52.97874 C -0.55229 -52.97874 -1.0 -53.42645 -1.0 -53.97874 C -1.0 -54.53104 -0.55229 -54.97874 0.0 -54.97874 C 0.55229 -54.97874 1.0 -54.53104 1.0 -53.97874 Z M 0.0 -53.97874  " />
 </g>
 </g>
 <g transform="translate(0.0,-53.97874)">
 <g fill="#000">
 <text style="stroke:none" transform="scale(1,-1) translate(0.0,0)" text-anchor="middle"  font-size="10"> 
<g fill="#000">
 <g stroke="none"> </g> </g>
 </text> 
</g>
 </g>
 </g>
 </g>
 <g stroke="#000" fill="#000">
 <g stroke="#000" fill="#000">
 </g>
 <g transform="translate(3.53297,-64.34503)">
 <g fill="#000">
 <text style="stroke:none" transform="scale(1,-1) translate(5.39583,0)" text-anchor="middle"  font-size="10"> 
<g fill="#000">
 <g stroke="none"> <tspan font-family="\cmmi" font-size="\10">M</tspan></g> </g>
 </text> 
</g>
 </g>
 </g>
 <g stroke="#000">
 <g fill="#000">
 <g stroke="#000">
 <g fill="#000">
 <path d=" M 27.98917 46.74698 C 27.98917 47.29927 27.54146 47.74698 26.98917 47.74698 C 26.43687 47.74698 25.98917 47.29927 25.98917 46.74698 C 25.98917 46.19469 26.43687 45.74698 26.98917 45.74698 C 27.54146 45.74698 27.98917 46.19469 27.98917 46.74698 Z M 26.98917 46.74698  " />
 </g>
 </g>
 <g transform="translate(26.98917,46.74698)">
 <g fill="#000">
 <text style="stroke:none" transform="scale(1,-1) translate(0.0,0)" text-anchor="middle"  font-size="10"> 
<g fill="#000">
 <g stroke="none"> </g> </g>
 </text> 
</g>
 </g>
 </g>
 </g>
 <g stroke="#000" fill="#000">
 <g stroke="#000" fill="#000">
 </g>
 <g transform="translate(30.52214,50.27995)">
 <g fill="#000">
 <text style="stroke:none" transform="scale(1,-1) translate(3.97916,0)" text-anchor="middle"  font-size="10"> 
<g fill="#000">
 <g stroke="none"> <tspan font-family="\cmmi" font-size="\10">E</tspan> </g> </g>
 </text> 
</g>
 </g>
 </g>
 <g stroke="#000">
 <g fill="#000">
 <g stroke="#000">
 <g fill="#000">
 <path d=" M 20.03625 17.06937 C 20.03625 17.62166 19.58855 18.06937 19.03625 18.06937 C 18.48396 18.06937 18.03625 17.62166 18.03625 17.06937 C 18.03625 16.51707 18.48396 16.06937 19.03625 16.06937 C 19.58855 16.06937 20.03625 16.51707 20.03625 17.06937 Z M 19.03625 17.06937  " />
 </g>
 </g>
 <g transform="translate(19.03625,17.06937)">
 <g fill="#000">
 <text style="stroke:none" transform="scale(1,-1) translate(0.0,0)" text-anchor="middle"  font-size="10"> 
<g fill="#000">
 <g stroke="none"> </g> </g>
 </text> 
</g>
 </g>
 </g>
 </g>
 <g stroke="#000" fill="#000">
 <g stroke="#000" fill="#000">
 </g>
 <g transform="translate(22.56923,6.70308)">
 <g fill="#000">
 <text style="stroke:none" transform="scale(1,-1) translate(4.27847,0)" text-anchor="middle"  font-size="10"> 
<g fill="#000">
 <g stroke="none"> <tspan font-family="\cmmi" font-size="\10">D</tspan> </g> </g>
 </text> 
</g>
 </g>
 </g>
 <g stroke="#808080" fill="#808080">
 <g stroke-width="0.2">
 <g stroke-dasharray="none" stroke-dashoffset="0.0">
 <g stroke="#808080" fill="#808080">
 <g stroke-width="0.2">
 <g stroke-dasharray="none" stroke-dashoffset="0.0">
 <path d=" M 34.9382 32.9695 C 34.9382 41.75345 27.8176 48.87405 19.03365 48.87405 C 10.2497 48.87405 3.12909 41.75345 3.12909 32.9695 C 3.12909 24.18555 10.2497 17.06494 19.03365 17.06494 C 27.8176 17.06494 34.9382 24.18555 34.9382 32.9695 Z M 19.03365 32.9695  " fill="none"/>
 </g>
 </g>
 </g>
 <g transform="translate(19.03365,32.9695)">
 <g fill="#808080">
 <text style="stroke:none" transform="scale(1,-1) translate(0.0,0)" text-anchor="middle"  font-size="10"> 
<g fill="#808080">
 <g stroke="none"> </g> </g>
 </text> 
</g>
 </g>
 </g>
 </g>
 </g>
 <g stroke-width="0.2">
 <g stroke="#000" fill="#000">
 <g stroke-dasharray="none" stroke-dashoffset="0.0">
 <g stroke-linecap="round">
 <g stroke-dasharray="3.0,3.0" stroke-dashoffset="0.0">
 <g stroke="#00f" fill="#00f">
 <path d=" M 26.98917 46.74698 M 32.3869 66.8918 L -5.39774 -74.12357  " fill="none"/>
 </g>
 </g>
 </g>
 </g>
 </g>
 </g>
 </g>
 </g>
 
                                     </g> 
</svg> 
